<?xml version="1.0" encoding="UTF-8"?>
<svg version="1.1" xmlns="http://www.w3.org/2000/svg" width="300" height="225">
<path d="M0 0 C99 0 198 0 300 0 C300 74.25 300 148.5 300 225 C201 225 102 225 0 225 C0 150.75 0 76.5 0 0 Z " fill="#1D8D22" transform="translate(0,0)"/>
<path d="M0 0 C55.44 0 110.88 0 168 0 C168 74.25 168 148.5 168 225 C129.06 225 90.12 225 50 225 C50 224.67 50 224.34 50 224 C51.14662109 223.88785156 51.14662109 223.88785156 52.31640625 223.7734375 C69.42032662 221.67403933 85.59105786 214.00747637 98 202 C97.15179688 202.51949219 96.30359375 203.03898438 95.4296875 203.57421875 C83.8319274 210.52586811 71.9663895 216.11688123 58.15625 216.1328125 C56.53396484 216.13474609 56.53396484 216.13474609 54.87890625 216.13671875 C53.76386719 216.13285156 52.64882812 216.12898437 51.5 216.125 C50.38496094 216.12886719 49.26992187 216.13273438 48.12109375 216.13671875 C47.03957031 216.13542969 45.95804688 216.13414062 44.84375 216.1328125 C43.37711914 216.13112061 43.37711914 216.13112061 41.88085938 216.12939453 C38.85332964 215.99341226 35.97679562 215.55552876 33 215 C33.91520292 202.41595978 37.5483158 190.0922562 41.16796875 178.05078125 C41.98796978 175.04411079 42.54273375 172.08077361 43 169 C42.01 169 41.02 169 40 169 C40 168.34 40 167.68 40 167 C39.46632812 166.85304687 38.93265625 166.70609375 38.3828125 166.5546875 C25.76994864 162.7577354 14.381331 155.0312866 7.77734375 143.46875 C7.39255859 142.74171875 7.39255859 142.74171875 7 142 C18.8877392 144.17179851 30.55181895 147.16714176 42.0703125 150.80078125 C49.6149672 153.1387636 57.24124342 155.21019881 64.859375 157.29296875 C68.56386806 158.30686001 72.23481701 159.37394314 75.890625 160.55078125 C82.75694905 162.90305034 82.75694905 162.90305034 89.7109375 161.97265625 C92.52456062 159.95375826 94.44862052 158.10275896 96 155 C95.00097656 154.87238281 94.00195312 154.74476563 92.97265625 154.61328125 C80.27800407 152.79338509 66.77450349 148.96820992 54.79492188 144.43579102 C53.72558411 144.03204002 53.72558411 144.03204002 52.63464355 143.62013245 C52.09521118 143.41548874 51.55577881 143.21084503 51 143 C53.47232002 131.63204349 56.0908244 120.31298245 58.92724609 109.03027344 C59.50321562 106.73719784 60.07408398 104.44289237 60.64453125 102.1484375 C62.6352134 94.17867036 64.74577751 86.26229132 67.03564453 78.37207031 C68.68433043 72.60709573 70.18562506 66.8046321 71.6875 61 C71.99494141 59.82566406 72.30238281 58.65132812 72.61914062 57.44140625 C72.91369141 56.30574219 73.20824219 55.17007813 73.51171875 54 C73.77428467 52.989375 74.03685059 51.97875 74.30737305 50.9375 C75.00679702 47.97117314 75.53318308 45.01092716 76 42 C75.41226807 41.90783203 74.82453613 41.81566406 74.21899414 41.72070312 C67.21891525 40.4884154 60.96817725 38.26900292 54.4375 35.5 C53.38900879 35.05712646 52.34051758 34.61425293 51.26025391 34.15795898 C36.93421109 27.96519242 24.53041044 20.15364006 12.51757812 10.24121094 C10.2980821 8.42590885 8.02443437 6.6831646 5.75 4.9375 C3.68897378 3.35298924 1.84085048 1.84085048 0 0 Z " fill="#2EAD33" transform="translate(132,0)"/>
<path d="M0 0 C42.24 0 84.48 0 128 0 C122.98223514 8.02842377 122.98223514 8.02842377 118 11 C116.61018303 13.35777681 115.50123518 15.50666686 114.4375 18 C114.14157959 18.66483398 113.84565918 19.32966797 113.54077148 20.01464844 C108.89872509 29.68160299 108.89872509 29.68160299 107 40 C108.65 39.34 110.3 38.68 112 38 C111.63648437 39.52753906 111.63648437 39.52753906 111.265625 41.0859375 C110.35710298 44.91363002 109.46174693 48.7443202 108.56884766 52.57568359 C108.03746114 54.84034802 107.49412557 57.10184076 106.94921875 59.36328125 C101.62660327 81.81671044 100.39228763 104.02191479 100 127 C99.18015625 127.32613281 98.3603125 127.65226562 97.515625 127.98828125 C96.43796875 128.42527344 95.3603125 128.86226562 94.25 129.3125 C93.18265625 129.74175781 92.1153125 130.17101562 91.015625 130.61328125 C88.3347085 131.84608612 86.2616808 133.12807487 84 135 C84.5775 134.67 85.155 134.34 85.75 134 C88 133 88 133 92 133 C92.33848652 134.89492006 92.67056911 136.79098466 93 138.6875 C93.185625 139.74324219 93.37125 140.79898438 93.5625 141.88671875 C93.95068074 144.64904062 94.08259976 147.21742043 94 150 C94.9075 149.67 95.815 149.34 96.75 149 C100 148 100 148 104 148 C104.18062988 148.54301758 104.36125977 149.08603516 104.54736328 149.64550781 C107.78906864 159.32352395 110.99943738 168.77167875 115.8359375 177.78515625 C117 180 117 180 118 183 C116.64870353 183.48720213 115.29375684 183.96428184 113.9375 184.4375 C113.18339844 184.70433594 112.42929688 184.97117188 111.65234375 185.24609375 C98.72674637 188.92008535 81.06538853 189.20791775 69 183 C36.73318768 164.89292238 20.23077014 131.32988486 10.390625 96.86572266 C6.94408662 84.3691101 4.530511 72.01527845 5 59 C1.9254644 59.7763932 1.9254644 59.7763932 0 62 C0 41.54 0 21.08 0 0 Z " fill="#D65349" transform="translate(0,0)"/>
<path d="M0 0 C0.33 0 0.66 0 1 0 C1.10022461 0.61294922 1.20044922 1.22589844 1.30371094 1.85742188 C5.55063294 27.60859975 11.38104705 51.95917222 24 75 C24.59941406 76.10214844 25.19882812 77.20429688 25.81640625 78.33984375 C29.38703225 84.67431 33.3150141 90.44270501 38 96 C38.67804687 96.82371094 39.35609375 97.64742188 40.0546875 98.49609375 C48.40841357 108.26192654 58.23938301 114.89234615 70 120 C70.86367187 120.38027344 71.72734375 120.76054687 72.6171875 121.15234375 C77.6768035 122.42016901 82.61870868 122.24785598 87.8125 122.1875 C88.85470703 122.18685547 89.89691406 122.18621094 90.97070312 122.18554688 C95.75970143 122.15849039 100.24160764 121.9922184 104.953125 121.1171875 C107.11645508 120.84936523 107.11645508 120.84936523 109 121 C111.27343384 123.06408166 112.39913652 124.4077012 113.9375 126.9375 C114.77319399 128.15361941 115.61837076 129.36327402 116.47265625 130.56640625 C116.8917627 131.15824707 117.31086914 131.75008789 117.74267578 132.35986328 C128.83715329 146.83223219 149.69941185 153.59014676 167 156 C167 156.33 167 156.66 167 157 C111.89 157 56.78 157 0 157 C0 105.19 0 53.38 0 0 Z " fill="#E2E2E2" transform="translate(0,68)"/>
<path d="M0 0 C55.44 0 110.88 0 168 0 C168 15.51 168 31.02 168 47 C166.68 46.34 165.36 45.68 164 45 C158.4074569 44.54159483 153.80513247 45.22248518 148.3515625 46.49609375 C140.10553377 48.25944396 132.02958006 48.45697698 123.62182617 48.39111328 C121.19977937 48.37508128 118.77941749 48.3910333 116.35742188 48.41015625 C101.87971139 48.43040941 87.72977389 46.50829893 73.8125 42.4375 C72.95358154 42.18701904 72.09466309 41.93653809 71.2097168 41.6784668 C49.32835851 35.00109401 28.98427231 24.67268705 11.859375 9.45703125 C8.58642228 6.64461696 5.17173125 4.29698207 1.51171875 2.0234375 C1.01285156 1.68570312 0.51398438 1.34796875 0 1 C0 0.67 0 0.34 0 0 Z " fill="#CBCCCB" transform="translate(132,0)"/>
<path d="M0 0 C42.24 0 84.48 0 128 0 C122.95169082 8.07729469 122.95169082 8.07729469 118 11 C116.64528228 13.25591223 115.59035892 15.29428084 114.5625 17.6875 C114.25868408 18.34306885 113.95486816 18.9986377 113.6418457 19.67407227 C112.06788561 23.15758899 110.79268489 26.55899828 109.8515625 30.265625 C108.20036516 36.43004733 106.84195441 41.28140877 101.078125 44.64453125 C96.53249633 46.86757951 91.81667355 48.47621809 87 50 C85.82050781 50.41378906 84.64101562 50.82757813 83.42578125 51.25390625 C68.30016935 56.29577688 53.4129129 58.1787477 37.5625 58.1875 C36.39912109 58.19974609 35.23574219 58.21199219 34.03710938 58.22460938 C27.86762679 58.23502493 22.16772763 57.90023065 16.16235352 56.44311523 C12.74231743 55.74227234 9.47900127 55.8711481 6 56 C5.67 56.99 5.34 57.98 5 59 C3.515 59.495 3.515 59.495 2 60 C1.34 60.66 0.68 61.32 0 62 C0 41.54 0 21.08 0 0 Z " fill="#CCCCCC" transform="translate(0,0)"/>
<path d="M0 0 C0.33 0 0.66 0 1 0 C1 54.78 1 109.56 1 166 C-37.94 166 -76.88 166 -117 166 C-117 165.67 -117 165.34 -117 165 C-115.85337891 164.88785156 -115.85337891 164.88785156 -114.68359375 164.7734375 C-95.99534788 162.47957339 -80.03784111 153.77111881 -66.69384766 140.65869141 C-64.83782952 138.84119542 -62.95605756 137.05244941 -61.07421875 135.26171875 C-28.06600212 103.49170208 -9.93206124 58.37632752 -2.45654297 13.71972656 C-1.68737492 9.13762387 -0.83770135 4.56998478 0 0 Z " fill="#FBFCFB" transform="translate(299,59)"/>
<path d="M0 0 C0.33 0 0.66 0 1 0 C1 54.78 1 109.56 1 166 C-9.89 166 -20.78 166 -32 166 C-32 160.39 -32 154.78 -32 149 C-22.1 149 -12.2 149 -2 149 C-2 139.1 -2 129.2 -2 119 C-11.49892964 119.03959626 -11.49892964 119.03959626 -20.99780273 119.09008789 C-22.17286377 119.09258545 -23.3479248 119.09508301 -24.55859375 119.09765625 C-25.76829834 119.10289307 -26.97800293 119.10812988 -28.22436523 119.11352539 C-31 119 -31 119 -32 118 C-33.50275842 103.93644951 -31.40077375 95.14437086 -24.22705078 83.18359375 C-12.04014364 61.49642753 -6.29334955 35.22379236 -2 11 C-1.6232442 8.924325 -1.24567072 6.84879821 -0.8671875 4.7734375 C-0.57806824 3.18230198 -0.28898362 1.59116016 0 0 Z " fill="#FAFCFA" transform="translate(299,59)"/>
<path d="M0 0 C0.99 0 1.98 0 3 0 C3.05945801 0.60658447 3.11891602 1.21316895 3.18017578 1.83813477 C6.82846584 37.65923684 17.56243613 72.35867261 40 101 C40.65484375 101.83917969 41.3096875 102.67835938 41.984375 103.54296875 C51.32559097 114.75628792 64.68009219 123.76361217 79 127 C82.42163889 127.273005 85.81900766 127.28473722 89.25 127.25 C90.18078369 127.24540771 91.11156738 127.24081543 92.07055664 127.23608398 C98.56547197 127.15034815 104.67754268 126.53378131 111 125 C112.99907671 124.66117344 114.99855726 124.32455828 117 124 C117.58394531 124.81791016 117.58394531 124.81791016 118.1796875 125.65234375 C130.18701826 141.83734029 146.24102917 151.1644921 165.6796875 155.61328125 C170.82479931 156.21253545 175.94923401 156.2254703 181.125 156.25 C182.72214844 156.2809375 182.72214844 156.2809375 184.3515625 156.3125 C199.51292059 156.38609883 215.11059588 151.62475572 227 142 C227.66 142.33 228.32 142.66 229 143 C213.69716364 158.22186898 194.06133974 165.77659151 172.625 166.3125 C150.21486061 165.92135794 129.70404514 157.0337102 114 141 C107 132.92407407 107 132.92407407 107 130 C105.13601562 130.48146484 105.13601562 130.48146484 103.234375 130.97265625 C89.48920112 134.00594423 73.44751996 133.98839335 61 127 C60.07703125 126.50371094 59.1540625 126.00742188 58.203125 125.49609375 C30.95541898 109.52462765 16.84418882 79.72922799 7 51 C6.60941406 49.89269531 6.21882812 48.78539062 5.81640625 47.64453125 C1.26258426 33.94762699 -2.65051205 17.52810237 -2 3 C-1.34 2.01 -0.68 1.02 0 0 Z " fill="#324955" transform="translate(2,59)"/>
<path d="M0 0 C0.33 0 0.66 0 1 0 C1.10022461 0.61294922 1.20044922 1.22589844 1.30371094 1.85742188 C5.04693897 24.55445533 9.64985064 46.85430933 20.0625 67.5625 C20.39467529 68.22499756 20.72685059 68.88749512 21.0690918 69.57006836 C22.53202366 72.41216134 24.01266776 75.01773486 25.875 77.625 C32.33199353 86.95176843 30.03838402 98.24608295 29 109 C19.51541962 110.89691608 9.67241209 110 0 110 C0 73.7 0 37.4 0 0 Z " fill="#CCCCCC" transform="translate(0,68)"/>
<path d="M0 0 C0.33 0 0.66 0 1 0 C1.33 5.94 1.66 11.88 2 18 C11.57 18.33 21.14 18.66 31 19 C31 28.9 31 38.8 31 49 C21.1 49 11.2 49 1 49 C1 39.1 1 29.2 1 19 C-3.29 19 -7.58 19 -12 19 C-8.409256 12.41696933 -4.37208454 6.09290499 0 0 Z " fill="#CCCDCC" transform="translate(266,159)"/>
<path d="M0 0 C11.88589679 2.17146191 23.55080532 5.16351903 35.06640625 8.80078125 C49.57321529 13.29745854 64.3086078 17.15396074 79 21 C79 21.66 79 22.32 79 23 C76.60539412 23.81627446 74.20943474 24.62811645 71.8125 25.4375 C70.80219727 25.78264648 70.80219727 25.78264648 69.77148438 26.13476562 C53.49704812 31.6125027 37.78433266 28.68993404 22.625 21.3125 C12.76738358 16.2557249 5.33987295 9.78976707 0 0 Z " fill="#FAFCFB" transform="translate(139,142)"/>
<path d="M0 0 C8.20630792 0.96741028 15.88347176 3.0516404 23.74829102 5.47729492 C30.53374043 7.56958423 37.34631001 9.53551055 44.1875 11.4375 C45.2276123 11.72681396 46.26772461 12.01612793 47.33935547 12.31420898 C49.47190215 12.90694643 51.6045529 13.49930958 53.73730469 14.09130859 C57.0689229 15.01919568 60.39804583 15.95558284 63.7265625 16.89453125 C64.8297583 17.20527588 65.9329541 17.51602051 67.06958008 17.83618164 C69.15568986 18.42402391 71.24149063 19.01296446 73.3269043 19.60327148 C80.1872861 21.53223251 87.07805745 23.30557807 94 25 C92.02794319 29.43861549 89.51310504 32.09787981 85 34 C81.76013231 34.03830163 78.94701503 33.15812182 75.875 32.1875 C75.00319092 31.9404834 74.13138184 31.6934668 73.2331543 31.43896484 C71.39635448 30.91482213 69.56356347 30.376445 67.73486328 29.82470703 C65.13143459 29.03963453 62.52077194 28.29187527 59.90234375 27.55859375 C56.46025506 26.59207962 53.02332176 25.60995419 49.58984375 24.61328125 C43.36197049 22.80909067 37.11934014 21.05870814 30.875 19.3125 C29.85639893 19.02713379 28.83779785 18.74176758 27.78833008 18.44775391 C25.82530662 17.89873057 23.86169726 17.35179706 21.89746094 16.80712891 C19.91416689 16.25465418 17.93312952 15.69403153 15.95410156 15.12646484 C14.49568848 14.71388428 14.49568848 14.71388428 13.0078125 14.29296875 C12.14043457 14.04442139 11.27305664 13.79587402 10.37939453 13.53979492 C7.75649647 12.85250634 7.75649647 12.85250634 4 13 C3.32942113 11.2097939 2.6636531 9.41778511 2 7.625 C1.62875 6.62726563 1.2575 5.62953125 0.875 4.6015625 C0 2 0 2 0 0 Z " fill="#2F4853" transform="translate(134,130)"/>
<path d="M0 0 C9.9 0 19.8 0 30 0 C30.020625 4.599375 30.04125 9.19875 30.0625 13.9375 C30.071604 15.39019287 30.08070801 16.84288574 30.09008789 18.33959961 C30.09258545 19.47405518 30.09508301 20.60851074 30.09765625 21.77734375 C30.10551147 23.52905884 30.10551147 23.52905884 30.11352539 25.31616211 C30 28 30 28 29 29 C26.92737924 29.08767112 24.85179706 29.10695873 22.77734375 29.09765625 C21.51728516 29.09443359 20.25722656 29.09121094 18.95898438 29.08789062 C17.61848891 29.07953403 16.27799412 29.07106907 14.9375 29.0625 C13.59310058 29.0574866 12.2486994 29.05292342 10.90429688 29.04882812 C7.60282059 29.03699488 4.30143197 29.02050971 1 29 C0.1589522 25.3535194 -0.11764968 22.00049093 -0.09765625 18.26171875 C-0.09515869 17.29967529 -0.09266113 16.33763184 -0.09008789 15.34643555 C-0.08098389 14.13898682 -0.07187988 12.93153809 -0.0625 11.6875 C-0.041875 7.830625 -0.02125 3.97375 0 0 Z " fill="#CCCCCC" transform="translate(267,0)"/>
<path d="M0 0 C9.57 0 19.14 0 29 0 C29 9.57 29 19.14 29 29 C19.43 29 9.86 29 0 29 C0 19.43 0 9.86 0 0 Z " fill="#FEFEFE" transform="translate(0,178)"/>
<path d="M0 0 C9.57 0 19.14 0 29 0 C29 9.57 29 19.14 29 29 C19.43 29 9.86 29 0 29 C0 19.43 0 9.86 0 0 Z " fill="#FEFEFE" transform="translate(238,0)"/>
<path d="M0 0 C9.57 0 19.14 0 29 0 C29 9.57 29 19.14 29 29 C19.43 29 9.86 29 0 29 C0 19.43 0 9.86 0 0 Z " fill="#CCCCCC" transform="translate(208,0)"/>
<path d="M0 0 C9.57 0 19.14 0 29 0 C29 9.57 29 19.14 29 29 C19.43 29 9.86 29 0 29 C0 19.43 0 9.86 0 0 Z " fill="#FEFEFE" transform="translate(178,0)"/>
<path d="M0 0 C9.57 0 19.14 0 29 0 C29 9.57 29 19.14 29 29 C19.43 29 9.86 29 0 29 C0 19.43 0 9.86 0 0 Z " fill="#FEFEFE" transform="translate(60,0)"/>
<path d="M0 0 C9.57 0 19.14 0 29 0 C29 9.57 29 19.14 29 29 C19.43 29 9.86 29 0 29 C0 19.43 0 9.86 0 0 Z " fill="#CCCCCC" transform="translate(30,0)"/>
<path d="M0 0 C9.57 0 19.14 0 29 0 C29 9.57 29 19.14 29 29 C19.43 29 9.86 29 0 29 C0 19.43 0 9.86 0 0 Z " fill="#FEFEFE" transform="translate(0,0)"/>
<path d="M0 0 C4.83866455 1.36256794 7.9407576 2.95277276 11 7 C12.25063547 14.94716743 10.81231846 23.09058343 10 31 C0.43 31 -9.14 31 -19 31 C-19 21.43 -19 11.86 -19 2 C-12.73 2 -6.46 2 0 2 C0 1.34 0 0.68 0 0 Z " fill="#CCCCCC" transform="translate(49,176)"/>
<path d="M0 0 C0.33 0 0.66 0 1 0 C1.10022461 0.61294922 1.20044922 1.22589844 1.30371094 1.85742188 C5.19648507 25.46122695 10.00417233 48.62630365 21.42285156 69.88867188 C23.31244519 73.42574903 24.19276387 75.96381936 25 80 C16.75 80 8.5 80 0 80 C0 53.6 0 27.2 0 0 Z " fill="#FCFCFC" transform="translate(0,68)"/>
<path d="M0 0 C9.57 0 19.14 0 29 0 C29.020625 4.269375 29.04125 8.53875 29.0625 12.9375 C29.071604 14.28577881 29.08070801 15.63405762 29.09008789 17.02319336 C29.09258545 18.07643799 29.09508301 19.12968262 29.09765625 20.21484375 C29.10551147 21.84087524 29.10551147 21.84087524 29.11352539 23.49975586 C29 26 29 26 28 27 C22.02152179 28.16000323 16.13437159 28.11603214 10.0625 28.0625 C6.741875 28.041875 3.42125 28.02125 0 28 C0 18.76 0 9.52 0 0 Z " fill="#FEFEFE" transform="translate(30,30)"/>
<path d="M0 0 C3.856875 0.165 7.71375 0.33 11.6875 0.5 C11.6875 9.74 11.6875 18.98 11.6875 28.5 C2.1175 28.5 -7.4525 28.5 -17.3125 28.5 C-17.415625 25.365 -17.51875 22.23 -17.625 19 C-17.67052002 18.02869141 -17.71604004 17.05738281 -17.76293945 16.05664062 C-17.84659339 10.7502825 -17.32805343 6.34896804 -14.18676758 1.94726562 C-10.11705414 -1.19527199 -4.8766695 -0.29415555 0 0 Z " fill="#FDFEFD" transform="translate(284.3125,148.5)"/>
<path d="M0 0 C9.57 0 19.14 0 29 0 C29 9.24 29 18.48 29 28 C19 27 19 27 16.375 26.4375 C12.89767142 25.79693947 9.53308474 25.94011721 6 26 C5.67 26.99 5.34 27.98 5 29 C4.01 29.33 3.02 29.66 2 30 C1.34 30.66 0.68 31.32 0 32 C0 21.44 0 10.88 0 0 Z " fill="#CCCBCB" transform="translate(0,30)"/>
<path d="M0 0 C9.24 0 18.48 0 28 0 C28 5.94 28 11.88 28 18 C28.66 18.33 29.32 18.66 30 19 C20.22951405 22.85728604 10.57280675 26 0 26 C0 17.42 0 8.84 0 0 Z " fill="#CCCBCB" transform="translate(60,30)"/>
<path d="M0 0 C-0.24234375 1.01835938 -0.4846875 2.03671875 -0.734375 3.0859375 C-1.64289702 6.91363002 -2.53825307 10.7443202 -3.43115234 14.57568359 C-3.96253886 16.84034802 -4.50587443 19.10184076 -5.05078125 21.36328125 C-10.37339673 43.81671044 -11.60771237 66.02191479 -12 89 C-15.96 89.99 -15.96 89.99 -20 91 C-20.60754205 66.57369388 -18.06435715 43.66334972 -12 20 C-11.71092773 18.86425537 -11.71092773 18.86425537 -11.41601562 17.70556641 C-9.26192664 9.36697457 -9.26192664 9.36697457 -8 6 C-7.34 5.67 -6.68 5.34 -6 5 C-6 4.01 -6 3.02 -6 2 C-2.25 0 -2.25 0 0 0 Z " fill="#BF4B41" transform="translate(112,38)"/>
<path d="M0 0 C9.57 0 19.14 0 29 0 C29 5.61 29 11.22 29 17 C30.65 17 32.3 17 34 17 C34 17.33 34 17.66 34 18 C21.46 18 8.92 18 -4 18 C-2.68 17.67 -1.36 17.34 0 17 C0 11.39 0 5.78 0 0 Z " fill="#CBCCCB" transform="translate(238,30)"/>
<path d="M0 0 C0.33 0.66 0.66 1.32 1 2 C1.71027344 1.98839844 2.42054688 1.97679688 3.15234375 1.96484375 C4.07144531 1.95582031 4.99054688 1.94679688 5.9375 1.9375 C6.85402344 1.92589844 7.77054687 1.91429688 8.71484375 1.90234375 C11 2 11 2 12 3 C12.09983058 4.98757028 12.13080753 6.9786752 12.1328125 8.96875 C12.13474609 10.78439453 12.13474609 10.78439453 12.13671875 12.63671875 C12.13285156 13.91160156 12.12898438 15.18648437 12.125 16.5 C12.13080078 18.41232422 12.13080078 18.41232422 12.13671875 20.36328125 C12.13542969 21.57371094 12.13414062 22.78414062 12.1328125 24.03125 C12.13168457 25.15080078 12.13055664 26.27035156 12.12939453 27.42382812 C12 30 12 30 11 31 C9.22130274 31.15764405 7.43681524 31.25100677 5.65234375 31.31640625 C4.57275391 31.35830078 3.49316406 31.40019531 2.38085938 31.44335938 C1.24455078 31.48267578 0.10824219 31.52199219 -1.0625 31.5625 C-2.77276367 31.62727539 -2.77276367 31.62727539 -4.51757812 31.69335938 C-7.34492195 31.79982839 -10.17235738 31.90184207 -13 32 C-12.74831055 31.42145264 -12.49662109 30.84290527 -12.23730469 30.24682617 C-5.68079081 15.29631349 -5.68079081 15.29631349 0 0 Z " fill="#CBCCCB" transform="translate(285,117)"/>
<path d="M0 0 C7.97257208 4.28183347 13.19831011 10.66327637 16.16015625 19.16015625 C16.74687818 21.88642806 17.00480951 24.36391502 17.16015625 27.16015625 C10.81962784 26.16264093 6.27902889 25.10667642 2.34765625 19.78515625 C1.80238281 18.99109375 1.25710937 18.19703125 0.6953125 17.37890625 C-3.39949119 11.4607167 -8.87446896 8.56631172 -15.83984375 7.16015625 C-22.61881697 6.46414353 -27.81310175 6.94589385 -33.83984375 10.16015625 C-32.44408892 6.85329096 -30.91513445 5.14440299 -28.02734375 3.03515625 C-27.36089844 2.53757812 -26.69445312 2.04 -26.0078125 1.52734375 C-18.27473108 -3.34937426 -8.43102716 -3.28978374 0 0 Z " fill="#2F4853" transform="translate(244.83984375,97.83984375)"/>
<path d="M0 0 C5.82304246 4.40559134 9.93527973 11.19217559 11.625 18.2734375 C11.90625 20.47265625 11.90625 20.47265625 12.03125 23.78515625 C5.64033903 22.77971456 1.12682865 21.70045407 -2.84375 16.34765625 C-3.8866089 14.8276402 -4.92842527 13.30690785 -5.96875 11.78515625 C-11.65358306 6.24992406 -18.19736992 3.54851585 -26.09375 3.41015625 C-30.71177876 3.56369685 -34.63518641 4.20931495 -38.96875 5.78515625 C-29.08253273 -7.39646678 -13.70334471 -8.45583374 0 0 Z " fill="#2E4753" transform="translate(166.96875,76.21484375)"/>
<path d="M0 0 C9.9 0 19.8 0 30 0 C30 5.61 30 11.22 30 17 C20.1 17 10.2 17 0 17 C0 11.39 0 5.78 0 0 Z " fill="#FDFDFD" transform="translate(267,208)"/>
<path d="M0 0 C3.75855962 0.75171192 6.5813778 1.54610123 10.0625 2.9375 C15.97971 5.15443835 21.7519102 6.11791673 28 7 C28 11.95 28 16.9 28 22 C18.76 22 9.52 22 0 22 C0 14.74 0 7.48 0 0 Z " fill="#FDFDFE" transform="translate(60,185)"/>
<path d="M0 0 C9.57 0 19.14 0 29 0 C29 5.61 29 11.22 29 17 C19.43 17 9.86 17 0 17 C0 11.39 0 5.78 0 0 Z " fill="#CCCCCC" transform="translate(238,208)"/>
<path d="M0 0 C9.57 0 19.14 0 29 0 C29 5.61 29 11.22 29 17 C19.43 17 9.86 17 0 17 C0 11.39 0 5.78 0 0 Z " fill="#FDFDFD" transform="translate(89,208)"/>
<path d="M0 0 C9.57 0 19.14 0 29 0 C29 5.61 29 11.22 29 17 C19.43 17 9.86 17 0 17 C0 11.39 0 5.78 0 0 Z " fill="#CCCCCC" transform="translate(60,208)"/>
<path d="M0 0 C9.57 0 19.14 0 29 0 C29 5.61 29 11.22 29 17 C19.43 17 9.86 17 0 17 C0 11.39 0 5.78 0 0 Z " fill="#FEFEFE" transform="translate(30,208)"/>
<path d="M0 0 C9.57 0 19.14 0 29 0 C29 5.61 29 11.22 29 17 C19.43 17 9.86 17 0 17 C0 11.39 0 5.78 0 0 Z " fill="#CCCCCC" transform="translate(0,208)"/>
<path d="M0 0 C7.65157084 1.68166392 15.10088835 3.58254906 22.56640625 5.94921875 C28.66129693 7.81443558 34.83188223 9.39611876 41 11 C41 11.66 41 12.32 41 13 C38.60539412 13.81627446 36.20943474 14.62811645 33.8125 15.4375 C33.13896484 15.66759766 32.46542969 15.89769531 31.77148438 16.13476562 C20.66567333 19.8728191 10.35370602 19.81330769 -1 17 C-0.34 16.67 0.32 16.34 1 16 C0.67 10.72 0.34 5.44 0 0 Z " fill="#C7CAC8" transform="translate(177,152)"/>
<path d="M0 0 C3.9693655 -0.02291487 7.9385632 -0.04284015 11.90795898 -0.05493164 C13.25920386 -0.05997057 14.61044326 -0.06680177 15.96166992 -0.07543945 C17.90020434 -0.08752419 19.838778 -0.09269828 21.77734375 -0.09765625 C23.52905884 -0.10551147 23.52905884 -0.10551147 25.31616211 -0.11352539 C28 0 28 0 29 1 C29.07258946 3.18639453 29.08373783 5.37500389 29.0625 7.5625 C29.05347656 8.76003906 29.04445313 9.95757812 29.03515625 11.19140625 C29.02355469 12.11824219 29.01195312 13.04507813 29 14 C27.96359375 14.13277344 26.9271875 14.26554687 25.859375 14.40234375 C24.48956735 14.58060639 23.11977656 14.75899862 21.75 14.9375 C21.06808594 15.02451172 20.38617188 15.11152344 19.68359375 15.20117188 C15.73311682 15.71788972 15.73311682 15.71788972 11.84375 16.5625 C9.4455075 17.13157449 7.21074561 17.09487823 4.75 17.0625 C3.1825 17.041875 1.615 17.02125 0 17 C0 11.39 0 5.78 0 0 Z " fill="#FDFEFD" transform="translate(268,30)"/>
<path d="M0 0 C9.57 0 19.14 0 29 0 C29 5.61 29 11.22 29 17 C18.33457897 16.62902883 10.10265824 15.55889097 0 12 C0 8.04 0 4.08 0 0 Z " fill="#FCFDFC" transform="translate(208,30)"/>
<path d="M0 0 C1.80817649 1.85008786 3.2460411 3.55276999 4.75 5.625 C5.54921875 6.66914063 6.3484375 7.71328125 7.171875 8.7890625 C9 12 9 12 9 18 C-0.24 18 -9.48 18 -19 18 C-19 13.05 -19 8.1 -19 3 C-21.97 3 -24.94 3 -28 3 C-28 2.67 -28 2.34 -28 2 C-26.02966797 1.90912109 -26.02966797 1.90912109 -24.01953125 1.81640625 C-22.28384459 1.73196744 -20.54816802 1.64732112 -18.8125 1.5625 C-17.94818359 1.52318359 -17.08386719 1.48386719 -16.19335938 1.44335938 C-10.74206335 1.17183888 -5.42264866 0 0 0 Z " fill="#C8C9C9" transform="translate(109,189)"/>
<path d="M0 0 C0.18062988 0.54301758 0.36125977 1.08603516 0.54736328 1.64550781 C3.78906864 11.32352395 6.99943738 20.77167875 11.8359375 29.78515625 C13 32 13 32 14 35 C12.56445975 35.50559908 11.1264798 36.0042749 9.6875 36.5 C8.88699219 36.7784375 8.08648437 37.056875 7.26171875 37.34375 C5 38 5 38 2 38 C-1.48175342 31.01256359 -4.48225691 24.06919614 -6.8125 16.625 C-7.0189917 15.97208984 -7.2254834 15.31917969 -7.43823242 14.64648438 C-8.71494486 10.42974072 -9.4764234 6.35750845 -10 2 C-6.38026598 0.68373308 -3.90432869 0 0 0 Z " fill="#BC4B40" transform="translate(104,148)"/>
<path d="M0 0 C0.65484375 0.43570313 1.3096875 0.87140625 1.984375 1.3203125 C15.20952236 9.95028154 28.1950317 15.97680381 44 18 C44 18.33 44 18.66 44 19 C28.16 19 12.32 19 -4 19 C-4 13.39 -4 7.78 -4 2 C-2.68 2 -1.36 2 0 2 C0 1.34 0 0.68 0 0 Z " fill="#CBCBCB" transform="translate(123,206)"/>
<path d="M0 0 C0.3396019 1.87387477 0.67138691 3.74916697 1 5.625 C1.185625 6.66914063 1.37125 7.71328125 1.5625 8.7890625 C1.98758902 11.90891229 2.03070286 14.85679493 2 18 C-2.12382089 19.17086263 -6.24924313 20.33597927 -10.375 21.5 C-11.550625 21.83386719 -12.72625 22.16773438 -13.9375 22.51171875 C-15.05898437 22.82753906 -16.18046875 23.14335937 -17.3359375 23.46875 C-18.37282715 23.76201172 -19.4097168 24.05527344 -20.47802734 24.35742188 C-23 25 -23 25 -25 25 C-23.77393879 17.00208907 -19.1289941 10.1812078 -12.796875 5.25 C-5.25 0 -5.25 0 0 0 Z " fill="#CCC7C7" transform="translate(92,133)"/>
<path d="M0 0 C0.33 0 0.66 0 1 0 C1 9.57 1 19.14 1 29 C10.57 29 20.14 29 30 29 C30 19.43 30 9.86 30 0 C30.33 0 30.66 0 31 0 C31 9.57 31 19.14 31 29 C40.57 29 50.14 29 60 29 C60 27.35 60 25.7 60 24 C60.33 24 60.66 24 61 24 C61 25.65 61 27.3 61 29 C70.24 28.67 79.48 28.34 89 28 C89.33 18.76 89.66 9.52 90 0 C90.99 0 91.98 0 93 0 C93 15.51 93 31.02 93 47 C91.68 46.01 90.36 45.02 89 44 C89 39.71 89 35.42 89 31 C75.14 30.505 75.14 30.505 61 30 C61 35.61 61 41.22 61 47 C60.67 47 60.34 47 60 47 C60 41.39 60 35.78 60 30 C50.43 30 40.86 30 31 30 C31 35.61 31 41.22 31 47 C30.67 47 30.34 47 30 47 C30 41.39 30 35.78 30 30 C20.43 30 10.86 30 1 30 C1 33.96 1 37.92 1 42 C0.67 42 0.34 42 0 42 C0 38.04 0 34.08 0 30 C-9.24 30 -18.48 30 -28 30 C-28 29.67 -28 29.34 -28 29 C-18.76 29 -9.52 29 0 29 C0 19.43 0 9.86 0 0 Z " fill="#E3E3E3" transform="translate(207,0)"/>
<path d="M0 0 C6.12849146 3.38595132 11.42287972 7.70613916 13.6875 14.5 C7.86397439 13.68075826 2.24221703 12.17697635 -3.4375 10.6875 C-4.97096069 10.28700439 -4.97096069 10.28700439 -6.53540039 9.87841797 C-13.56506988 8.0191193 -20.47958551 5.99805476 -27.3125 3.5 C-19.97365456 -4.65427271 -9.51535376 -4.39905802 0 0 Z " fill="#CBCCCC" transform="translate(153.3125,81.5)"/>
<path d="M0 0 C5.37902159 3.05464306 9.91357717 7.19749102 13.359375 12.33984375 C13.359375 12.99984375 13.359375 13.65984375 13.359375 14.33984375 C5.99178972 13.75224492 -0.68320222 11.64190127 -7.703125 9.40234375 C-9.98550935 8.6843624 -12.26805688 7.96689956 -14.55078125 7.25 C-16.13656982 6.74944092 -16.13656982 6.74944092 -17.75439453 6.23876953 C-21.03616181 5.21665254 -24.32847831 4.25801504 -27.640625 3.33984375 C-20.22116755 -4.90399786 -9.57338992 -4.28363466 0 0 Z " fill="#F5F8F6" transform="translate(236.640625,106.66015625)"/>
<path d="M0 0 C-1.57363332 5.87233899 -3.00013859 10.16289706 -8 14 C-13.27583406 16.63791703 -19.22769455 16.81414745 -25 16 C-28.03038816 14.76310687 -30.69304098 13.34662021 -33 11 C-33 10.01 -33 9.02 -33 8 C-32.07960937 7.75765625 -31.15921875 7.5153125 -30.2109375 7.265625 C-28.31214844 6.76289062 -28.31214844 6.76289062 -26.375 6.25 C-25.70364014 6.07243164 -25.03228027 5.89486328 -24.34057617 5.71191406 C-18.50318579 4.15746215 -12.71220504 2.46963473 -6.92578125 0.734375 C-4 0 -4 0 0 0 Z " fill="#FAF9F9" transform="translate(71,92)"/>
<path d="M0 0 C0.33 0 0.66 0 1 0 C1.10022461 0.61294922 1.20044922 1.22589844 1.30371094 1.85742188 C3.67110152 16.21207591 6.04353845 30.50246025 10.75 44.3125 C12 48 12 48 12 51 C8.04 51 4.08 51 0 51 C0 34.17 0 17.34 0 0 Z " fill="#C7C8C9" transform="translate(0,68)"/>
<path d="M0 0 C6.27 0 12.54 0 19 0 C17.69615385 9.12692308 17.69615385 9.12692308 16 12 C13.06640625 13.80078125 13.06640625 13.80078125 9.5625 15.3125 C8.40878906 15.82425781 7.25507812 16.33601563 6.06640625 16.86328125 C3 18 3 18 0 18 C0 12.06 0 6.12 0 0 Z " fill="#FCFBFB" transform="translate(89,30)"/>
<path d="M0 0 C0.99 0 1.98 0 3 0 C3 25.08 3 50.16 3 76 C2.01 76 1.02 76 0 76 C0 50.92 0 25.84 0 0 Z " fill="#FBFBFB" transform="translate(297,149)"/>
<path d="M0 0 C0.66 0 1.32 0 2 0 C3.19140625 1.3984375 3.19140625 1.3984375 4.5625 3.375 C7.7466755 7.79353489 11.32751855 11.7307511 15.046875 15.703125 C17 18 17 18 19 22 C12.73 22 6.46 22 0 22 C0 14.74 0 7.48 0 0 Z " fill="#FAFBFB" transform="translate(30,156)"/>
<path d="M0 0 C1 7 2 14 3 21 C-0.61973402 22.31626692 -3.09567131 23 -7 23 C-7.33848652 21.10507994 -7.67056911 19.20901534 -8 17.3125 C-8.185625 16.25675781 -8.37125 15.20101562 -8.5625 14.11328125 C-8.95068074 11.35095938 -9.08259976 8.78257957 -9 6 C-10.29217171 6.47780303 -11.58372046 6.95729106 -12.875 7.4375 C-13.95394531 7.83775391 -13.95394531 7.83775391 -15.0546875 8.24609375 C-17.03648845 8.97916854 -17.03648845 8.97916854 -19 10 C-17.79069645 6.37208935 -16.43489995 5.9053006 -13.13085938 4.24804688 C-12.16889648 3.78495117 -12.16889648 3.78495117 -11.1875 3.3125 C-10.55779297 2.99216797 -9.92808594 2.67183594 -9.27929688 2.34179688 C-5.86583036 0.6619272 -3.87806037 0 0 0 Z " fill="#2F4652" transform="translate(101,127)"/>
<path d="M0 0 C1.12067871 0.01047363 2.24135742 0.02094727 3.39599609 0.03173828 C5.21357422 0.04140625 5.21357422 0.04140625 7.06787109 0.05126953 C8.33888672 0.06802734 9.60990234 0.08478516 10.91943359 0.10205078 C12.19818359 0.11107422 13.47693359 0.12009766 14.79443359 0.12939453 C17.96117939 0.15302696 21.12782944 0.18889892 24.29443359 0.22705078 C24.29443359 4.18705078 24.29443359 8.14705078 24.29443359 12.22705078 C14.06168029 10.02506589 4.86057126 6.36406529 -4.70556641 2.22705078 C-2.70556641 0.22705078 -2.70556641 0.22705078 0 0 Z " fill="#C6CAC6" transform="translate(182.70556640625,29.77294921875)"/>
<path d="M0 0 C0.33 0 0.66 0 1 0 C1 9.57 1 19.14 1 29 C10.57 29 20.14 29 30 29 C30 19.43 30 9.86 30 0 C30.33 0 30.66 0 31 0 C31 9.57 31 19.14 31 29 C40.24 29 49.48 29 59 29 C59 29.33 59 29.66 59 30 C49.76 30 40.52 30 31 30 C31 38.91 31 47.82 31 57 C30.01 56.505 30.01 56.505 29 56 C29.33 47.42 29.66 38.84 30 30 C20.43 30 10.86 30 1 30 C1 39.24 1 48.48 1 58 C0.67 58 0.34 58 0 58 C0 48.76 0 39.52 0 30 C-9.57 30 -19.14 30 -29 30 C-29 29.67 -29 29.34 -29 29 C-19.43 29 -9.86 29 0 29 C0 19.43 0 9.86 0 0 Z " fill="#E2E1E1" transform="translate(29,0)"/>
<path d="M0 0 C0.33 0 0.66 0 1 0 C1 19.47 1 38.94 1 59 C0.01 59 -0.98 59 -2 59 C-2.33 49.76 -2.66 40.52 -3 31 C-3.66 30.67 -4.32 30.34 -5 30 C-3.51659041 19.96517043 -1.79340033 9.98326182 0 0 Z " fill="#CECECE" transform="translate(299,59)"/>
<path d="M0 0 C1.05703125 0.00644531 2.1140625 0.01289062 3.203125 0.01953125 C5.75 0.1875 5.75 0.1875 6.75 1.1875 C6.89115161 3.85808851 6.79247107 6.51182238 6.75 9.1875 C-1.18285519 9.55551906 -7.7845605 8.96226512 -15.25 6.1875 C-10.68592668 1.11630743 -6.75507301 -0.09150961 0 0 Z " fill="#F3F5F5" transform="translate(141.25,78.8125)"/>
<path d="M0 0 C0.99 0 1.98 0 3 0 C2.7230127 0.80377075 2.7230127 0.80377075 2.44042969 1.6237793 C1.05992768 5.68854203 -0.23288911 9.75162187 -1.359375 13.89453125 C-1.58882812 14.70470703 -1.81828125 15.51488281 -2.0546875 16.34960938 C-2.52221537 18.00565612 -2.96985884 19.66743301 -3.3984375 21.33398438 C-4.67801627 25.71759627 -5.63900596 28.24441033 -9.703125 30.57421875 C-10.79109375 31.04472656 -11.8790625 31.51523437 -13 32 C-12.45431443 25.94859137 -10.591228 20.99094054 -8.1875 15.4375 C-7.84396484 14.61314453 -7.50042969 13.78878906 -7.14648438 12.93945312 C-5.1643264 8.28714614 -3.16772904 3.96448035 0 0 Z " fill="#334C56" transform="translate(119,9)"/>
<path d="M0 0 C-0.91599739 6.22878226 -3.31091268 10.79599068 -8 15 C-7.52269162 13.5410574 -7.04308958 12.08286504 -6.5625 10.625 C-6.29566406 9.81289062 -6.02882812 9.00078125 -5.75390625 8.1640625 C-5 6 -5 6 -4 4 C-4.77077881 4.20681396 -5.54155762 4.41362793 -6.33569336 4.62670898 C-9.86786942 5.5703716 -13.40262496 6.5040007 -16.9375 7.4375 C-18.14986328 7.76298828 -19.36222656 8.08847656 -20.61132812 8.42382812 C-27.09711151 10.12876305 -33.30993427 11.48760014 -40 12 C-40.33 11.34 -40.66 10.68 -41 10 C-34.00491004 7.98263263 -27.00493176 5.98292687 -20 4 C-19.21254395 3.77666992 -18.42508789 3.55333984 -17.61376953 3.32324219 C-15.57789523 2.74940843 -13.5396865 2.18510896 -11.5 1.625 C-10.3553125 1.30789062 -9.210625 0.99078125 -8.03125 0.6640625 C-5.23451666 0.05137607 -2.84880532 -0.13818832 0 0 Z " fill="#424F5A" transform="translate(75,88)"/>
<path d="M0 0 C0 4.29 0 8.58 0 13 C-5.28 13 -10.56 13 -16 13 C-13.74667511 7.36668778 -13.74667511 7.36668778 -10.5625 4.8125 C-9.96566406 4.32394531 -9.36882812 3.83539063 -8.75390625 3.33203125 C-5.43222996 0.80933278 -4.33147152 0 0 0 Z " fill="#FBFBFC" transform="translate(88,135)"/>
<path d="M0 0 C-1.57615318 5.88174236 -3.02313774 10.1156197 -8 14 C-9.32 14.33 -10.64 14.66 -12 15 C-12 10.71 -12 6.42 -12 2 C-10.7625 1.67 -9.525 1.34 -8.25 1 C-7.55390625 0.814375 -6.8578125 0.62875 -6.140625 0.4375 C-4 0 -4 0 0 0 Z " fill="#C8C8C8" transform="translate(71,92)"/>
<path d="M0 0 C0.3396019 1.87387477 0.67138691 3.74916697 1 5.625 C1.185625 6.66914063 1.37125 7.71328125 1.5625 8.7890625 C1.98715797 11.90574865 2.07545206 14.85930812 2 18 C0.35 18 -1.3 18 -3 18 C-3 17.34 -3 16.68 -3 16 C-8.94 16 -14.88 16 -21 16 C-20.67 15.34 -20.34 14.68 -20 14 C-14.72 14.33 -9.44 14.66 -4 15 C-4 10.71 -4 6.42 -4 2 C-4.66 1.67 -5.32 1.34 -6 1 C-4 0 -4 0 0 0 Z " fill="#E5E3E3" transform="translate(92,133)"/>
<path d="M0 0 C8.76660902 1.60159203 17.37072413 3.79450269 26 6 C26 6.33 26 6.66 26 7 C20.72 7 15.44 7 10 7 C10 8.65 10 10.3 10 12 C5.25892502 8.74897716 2.79129597 4.89367634 0 0 Z " fill="#D1D7D2" transform="translate(139,142)"/>
<path d="M0 0 C5.28 0 10.56 0 16 0 C16 3.96 16 7.92 16 12 C12.5058932 9.90353592 9.47963293 7.92711383 6.3125 5.4375 C5.54550781 4.83808594 4.77851563 4.23867187 3.98828125 3.62109375 C2 2 2 2 0 0 Z " fill="#F7FAF7" transform="translate(132,0)"/>
<path d="M0 0 C5.31954226 3.1138784 9.35122113 7.01261586 13 12 C13 12.66 13 13.32 13 14 C8.03083364 13.48594831 3.70973649 12.76615118 -1 11 C-0.34 10.67 0.32 10.34 1 10 C0.67 6.7 0.34 3.4 0 0 Z " fill="#C7CAC7" transform="translate(237,107)"/>
<path d="M0 0 C0.99 0 1.98 0 3 0 C3 9.57 3 19.14 3 29 C2.01 29 1.02 29 0 29 C0 19.43 0 9.86 0 0 Z " fill="#CDCDCD" transform="translate(297,149)"/>
<path d="M0 0 C0.99 0 1.98 0 3 0 C3 9.57 3 19.14 3 29 C2.01 29 1.02 29 0 29 C0 19.43 0 9.86 0 0 Z " fill="#FCFCFC" transform="translate(297,0)"/>
<path d="M0 0 C-0.99 0 -1.98 0 -3 0 C-3 9.57 -3 19.14 -3 29 C-12.57 29 -22.14 29 -32 29 C-32 28.67 -32 28.34 -32 28 C-22.76 28 -13.52 28 -4 28 C-4 18.76 -4 9.52 -4 0 C-11.26 0 -18.52 0 -26 0 C-26 -0.33 -26 -0.66 -26 -1 C-22.4175621 -1.22624982 -18.83414899 -1.42787181 -15.25 -1.625 C-14.23421875 -1.68945312 -13.2184375 -1.75390625 -12.171875 -1.8203125 C-11.1921875 -1.871875 -10.2125 -1.9234375 -9.203125 -1.9765625 C-7.85202637 -2.05511475 -7.85202637 -2.05511475 -6.47363281 -2.13525391 C-3.81083053 -1.98965654 -2.26927521 -1.35693395 0 0 Z " fill="#F1F1F1" transform="translate(300,149)"/>
<path d="M0 0 C1.92024768 3.84049536 0.43149256 8.87684882 0 13 C-4.29 13 -8.58 13 -13 13 C-8.66666667 8.66666667 -4.33333333 4.33333333 0 0 Z " fill="#C7C8C9" transform="translate(237,195)"/>
<path d="M0 0 C0 2.31 0 4.62 0 7 C-8.58 7 -17.16 7 -26 7 C-26 6.67 -26 6.34 -26 6 C-24.78376953 5.85304687 -24.78376953 5.85304687 -23.54296875 5.703125 C-16.69111552 4.77784564 -10.56575075 3.38069649 -4.14453125 0.8046875 C-2 0 -2 0 0 0 Z " fill="#C3C5C5" transform="translate(208,218)"/>
<path d="M0 0 C12.74618834 -0.92017937 12.74618834 -0.92017937 15.8203125 1.3359375 C16.875 3 16.875 3 18 6 C13.93714243 7.63129887 10.79897816 6.29968777 6.75 5.0625 C5.48671875 4.68222656 4.2234375 4.30195312 2.921875 3.91015625 C1.95765625 3.60980469 0.9934375 3.30945313 0 3 C0 2.01 0 1.02 0 0 Z " fill="#F0F5F1" transform="translate(149,89)"/>
<path d="M0 0 C0.33 0 0.66 0 1 0 C1 9.9 1 19.8 1 30 C0.01 29.67 -0.98 29.34 -2 29 C-2.19538118 19.13325025 -2.38222795 9.65653116 0 0 Z " fill="#F3F9F3" transform="translate(299,59)"/>
<path d="M0 0 C0.99 0 1.98 0 3 0 C3 5.61 3 11.22 3 17 C2.01 17 1.02 17 0 17 C0 11.39 0 5.78 0 0 Z " fill="#CDCDCD" transform="translate(297,208)"/>
<path d="M0 0 C2.97 0 5.94 0 9 0 C8.265611 1.32129824 7.51183106 2.63183171 6.75 3.9375 C6.33234375 4.66839844 5.9146875 5.39929688 5.484375 6.15234375 C4 8 4 8 0 9 C0 6.03 0 3.06 0 0 Z " fill="#F9FBF9" transform="translate(119,0)"/>
<path d="M0 0 C0.99 0 1.98 0 3 0 C3 5.61 3 11.22 3 17 C1.68 16.01 0.36 15.02 -1 14 C-1.171875 10.64453125 -1.171875 10.64453125 -0.75 6.8125 C-0.55664062 4.90404297 -0.55664062 4.90404297 -0.359375 2.95703125 C-0.24078125 1.98121094 -0.1221875 1.00539063 0 0 Z " fill="#CACCCA" transform="translate(297,30)"/>
<path d="M0 0 C1.32 0 2.64 0 4 0 C4.66 4.95 5.32 9.9 6 15 C4.68 14.67 3.36 14.34 2 14 C2 9.71 2 5.42 2 1 C1.34 0.67 0.68 0.34 0 0 Z " fill="#C1C3C4" transform="translate(88,133)"/>
<path d="M0 0 C6.39205856 0.72362927 12.68027076 1.80343362 19 3 C19 3.33 19 3.66 19 4 C12.73 4 6.46 4 0 4 C0 2.68 0 1.36 0 0 Z " fill="#F6F7F7" transform="translate(148,221)"/>
<path d="M0 0 C4.95 0.99 4.95 0.99 10 2 C10 2.66 10 3.32 10 4 C5.05 5.485 5.05 5.485 0 7 C0 4.69 0 2.38 0 0 Z " fill="#EFF3F0" transform="translate(208,161)"/>
<path d="M0 0 C0.33 0 0.66 0 1 0 C1 9.24 1 18.48 1 28 C1.99 28.33 2.98 28.66 4 29 C0.73086376 30.03115279 -1.86041348 29.9638984 -5.25 29.5625 C-6.14203125 29.46066406 -7.0340625 29.35882813 -7.953125 29.25390625 C-8.62859375 29.17011719 -9.3040625 29.08632812 -10 29 C-10 28.67 -10 28.34 -10 28 C-6.7 28 -3.4 28 0 28 C0 18.76 0 9.52 0 0 Z " fill="#EDEDED" transform="translate(296,90)"/>
<path d="M0 0 C0.33 0 0.66 0 1 0 C2.20443195 7.05453001 3.28100502 13.83437211 3 21 C2.01 21 1.02 21 0 21 C0 14.07 0 7.14 0 0 Z " fill="#E4E7E9" transform="translate(0,68)"/>
<path d="M0 0 C-3.63 0.66 -7.26 1.32 -11 2 C-11 1.34 -11 0.68 -11 0 C-14.96 -0.33 -18.92 -0.66 -23 -1 C-23 -1.33 -23 -1.66 -23 -2 C-20.41703983 -2.19522373 -17.83395921 -2.38144403 -15.25 -2.5625 C-14.52039063 -2.61857422 -13.79078125 -2.67464844 -13.0390625 -2.73242188 C-7.59315546 -3.10373372 -4.54526558 -3.03017705 0 0 Z " fill="#504D56" transform="translate(109,189)"/>
<path d="M0 0 C-0.99 0.33 -1.98 0.66 -3 1 C-3 1.66 -3 2.32 -3 3 C-7.1196377 4.29243536 -10.66831683 5.26252625 -15 5 C-15.33 4.34 -15.66 3.68 -16 3 C-14.27318563 2.49193553 -12.54342021 1.99389533 -10.8125 1.5 C-9.84957031 1.2215625 -8.88664062 0.943125 -7.89453125 0.65625 C-5.14654124 0.03322392 -2.80401584 -0.12302812 0 0 Z " fill="#354955" transform="translate(50,95)"/>
<path d="M0 0 C2.64 0.33 5.28 0.66 8 1 C8.33 2.65 8.66 4.3 9 6 C6.75 6.375 6.75 6.375 4 6 C1.6875 3 1.6875 3 0 0 Z " fill="#F1F4F3" transform="translate(139,142)"/>
<path d="M0 0 C0.66 0.33 1.32 0.66 2 1 C0.58829091 2.29708314 -0.82958196 3.58745978 -2.25 4.875 C-3.03890625 5.59429687 -3.8278125 6.31359375 -4.640625 7.0546875 C-6.72026168 8.76935483 -8.54419267 9.92980873 -11 11 C-11 9.68 -11 8.36 -11 7 C-8.84765625 5.33203125 -8.84765625 5.33203125 -6.0625 3.8125 C-4.68771484 3.04873047 -4.68771484 3.04873047 -3.28515625 2.26953125 C-2.15400391 1.64111328 -2.15400391 1.64111328 -1 1 C-0.67 0.67 -0.34 0.34 0 0 Z " fill="#3B565D" transform="translate(229,201)"/>
<path d="M0 0 C-0.33 2.97 -0.66 5.94 -1 9 C-1.33 9 -1.66 9 -2 9 C-2 7.35 -2 5.7 -2 4 C-3.29217171 4.47780303 -4.58372046 4.95729106 -5.875 5.4375 C-6.95394531 5.83775391 -6.95394531 5.83775391 -8.0546875 6.24609375 C-10.03648845 6.97916854 -10.03648845 6.97916854 -12 8 C-10.77974937 4.3392481 -9.873509 4.07660559 -6.5625 2.3125 C-5.75941406 1.87550781 -4.95632812 1.43851563 -4.12890625 0.98828125 C-2 0 -2 0 0 0 Z " fill="#4C5963" transform="translate(94,129)"/>
<path d="M0 0 C4.62 0 9.24 0 14 0 C13.01 0.495 13.01 0.495 12 1 C12 1.66 12 2.32 12 3 C10.18674449 2.88648483 8.37436643 2.75887039 6.5625 2.625 C5.04849609 2.52058594 5.04849609 2.52058594 3.50390625 2.4140625 C2.67761719 2.27742187 1.85132812 2.14078125 1 2 C0.67 1.34 0.34 0.68 0 0 Z " fill="#284553" transform="translate(86,188)"/>
<path d="M0 0 C-3.18554592 0.96541545 -5.88752707 1.05239684 -9.203125 0.87890625 C-10.1828125 0.83056641 -11.1625 0.78222656 -12.171875 0.73242188 C-13.69554687 0.64831055 -13.69554687 0.64831055 -15.25 0.5625 C-16.796875 0.48418945 -16.796875 0.48418945 -18.375 0.40429688 C-20.91699039 0.27484366 -23.45856593 0.13988672 -26 0 C-26 -0.33 -26 -0.66 -26 -1 C-22.4175621 -1.22624982 -18.83414899 -1.42787181 -15.25 -1.625 C-14.23421875 -1.68945312 -13.2184375 -1.75390625 -12.171875 -1.8203125 C-10.70234375 -1.89765625 -10.70234375 -1.89765625 -9.203125 -1.9765625 C-7.85202637 -2.05511475 -7.85202637 -2.05511475 -6.47363281 -2.13525391 C-3.81083053 -1.98965654 -2.26927521 -1.35693395 0 0 Z " fill="#E5E5E5" transform="translate(300,149)"/>
<path d="M0 0 C0.33 0 0.66 0 1 0 C2.125 6.75 2.125 6.75 1 9 C-2.63 8.34 -6.26 7.68 -10 7 C-10 6.67 -10 6.34 -10 6 C-6.7 6 -3.4 6 0 6 C0 4.02 0 2.04 0 0 Z " fill="#D4DCD5" transform="translate(148,82)"/>
<path d="M0 0 C1.43836751 0.11458693 2.87570966 0.24209116 4.3125 0.375 C5.51326172 0.47941406 5.51326172 0.47941406 6.73828125 0.5859375 C9 1 9 1 12 3 C8.04 3 4.08 3 0 3 C0 2.01 0 1.02 0 0 Z " fill="#C0C2C3" transform="translate(149,145)"/>
<path d="M0 0 C0.66 0.33 1.32 0.66 2 1 C1.67 3.97 1.34 6.94 1 10 C0.01 9.67 -0.98 9.34 -2 9 C-2.25 3.375 -2.25 3.375 0 0 Z " fill="#425964" transform="translate(2,59)"/>
<path d="M0 0 C0 1.66666667 0 3.33333333 0 5 C-3.465 6.485 -3.465 6.485 -7 8 C-5.50902342 4.2047869 -3.24299151 2.38957269 0 0 Z " fill="#374F5A" transform="translate(218,100)"/>
<path d="M0 0 C0.33 0 0.66 0 1 0 C1 3.96 1 7.92 1 12 C0.01 12 -0.98 12 -2 12 C-1.34 8.04 -0.68 4.08 0 0 Z " fill="#BDCBBD" transform="translate(296,76)"/>
<path d="M0 0 C2.64 0 5.28 0 8 0 C8.33 0.99 8.66 1.98 9 3 C2.84765625 2.4140625 2.84765625 2.4140625 1 2 C0.67 1.34 0.34 0.68 0 0 Z " fill="#D2E1D3" transform="translate(241,118)"/>
</svg>
