<svg version="1.1" id="Layer_1" xmlns="http://www.w3.org/2000/svg" xmlns:xlink="http://www.w3.org/1999/xlink" x="0px" y="0px"
	 width="100%" viewBox="0 0 1024 1024" enable-background="new 0 0 1024 1024" xml:space="preserve">
<path fill="#000000" opacity="1.000000" stroke="none" 
	d="
M456.738373,403.261200 
	C461.818604,408.342133 466.577545,413.247833 471.516754,417.964752 
	C474.097717,420.429565 475.452911,423.122803 475.263611,426.774933 
	C475.030945,431.263153 475.093140,435.772369 475.180237,440.269531 
	C475.241302,443.419067 473.729340,444.617371 470.732910,445.027527 
	C460.356049,446.447784 457.915771,449.287689 457.948914,459.542633 
	C458.035095,486.204376 458.138245,512.866028 458.248383,539.527710 
	C458.289124,549.392212 462.347076,553.568970 472.193237,553.592590 
	C499.669281,553.658630 527.145569,553.678101 554.621643,553.626648 
	C564.132629,553.608887 568.684875,548.918640 568.684082,539.473572 
	C568.681702,512.310791 568.672546,485.148041 568.646179,457.985291 
	C568.639282,450.945587 565.413574,446.629456 558.466431,445.281616 
	C554.872925,444.584442 553.827026,442.811005 553.852600,439.501129 
	C553.916931,431.170044 553.848083,422.837555 553.784241,414.506012 
	C553.766968,412.243774 554.361206,410.355042 555.895813,408.582062 
	C565.061035,397.993134 573.098022,386.525909 581.566528,375.393738 
	C583.152649,373.308746 583.882202,371.093811 583.841797,368.455444 
	C583.738770,361.729523 583.807495,355.001007 583.807495,348.247589 
	C580.408875,348.339813 580.445618,350.031189 580.187439,351.439819 
	C580.038025,352.254578 579.877930,353.127136 580.012024,353.925079 
	C581.964417,365.543304 577.464661,374.761322 570.037170,383.368011 
	C563.631714,390.790375 558.165955,399.016724 552.065674,406.714020 
	C550.445496,408.758392 550.102112,410.800262 550.105774,413.169739 
	C550.119324,422.001587 549.956970,430.836182 550.134888,439.664215 
	C550.218384,443.805847 548.506104,445.299988 544.510925,445.274933 
	C524.514465,445.149567 504.517212,445.105743 484.520386,445.136200 
	C480.514160,445.142273 478.691315,443.562439 478.906006,439.465485 
	C479.097656,435.808563 478.522278,432.062256 479.095032,428.485046 
	C480.157440,421.849945 477.623047,417.295166 472.781342,412.927643 
	C465.120483,406.017151 458.075714,398.426147 450.707947,391.186523 
	C448.787323,389.299316 448.252350,387.363068 448.340149,384.555969 
	C448.772400,370.738892 448.952545,356.908295 448.063690,343.091370 
	C447.878082,340.206238 446.279602,338.153442 444.453979,336.164795 
	C443.073364,334.660950 442.625610,333.222565 444.092957,331.325867 
	C451.884064,321.255096 473.521881,313.980103 486.016418,317.340942 
	C500.282074,321.178162 508.974457,333.081238 509.145721,350.280396 
	C509.411285,376.940430 509.210358,403.605103 509.208801,430.267822 
	C509.208740,431.600800 509.227020,432.933746 509.231445,434.266724 
	C509.240997,437.157227 510.506348,439.327179 513.485657,439.426697 
	C516.640747,439.532043 518.412537,437.379883 518.526794,434.347260 
	C518.708618,429.522125 518.785706,424.673737 518.533081,419.854767 
	C517.284607,396.044312 517.459534,372.199036 518.079041,348.407562 
	C518.833313,319.441864 543.521790,311.233337 563.726318,319.377777 
	C572.221069,322.801971 579.755127,328.058014 586.198059,334.966248 
	C601.026550,329.140076 612.938354,332.731689 622.372498,346.427307 
	C625.963806,351.640930 629.149170,357.199951 630.200745,363.574341 
	C630.730103,366.783417 632.486328,367.585327 635.351196,367.680481 
	C655.393616,368.346008 668.671692,379.858521 678.703613,395.732025 
	C682.807983,402.226532 683.443237,409.957581 681.011536,417.478149 
	C679.938538,420.796478 681.008362,422.370605 683.971680,423.616882 
	C724.724182,440.756073 733.984680,489.484344 717.852234,521.610962 
	C714.150574,528.982666 713.540283,534.814636 716.730408,542.791565 
	C725.687744,565.189514 716.377441,590.239441 694.643311,603.681885 
	C687.723389,607.961914 683.659241,611.400452 683.178101,621.003113 
	C682.105286,642.415649 659.603577,661.512695 638.064209,661.162170 
	C631.699646,661.058655 628.357666,662.982605 625.384705,668.597839 
	C609.335999,698.910522 568.557800,705.814697 542.207458,687.617493 
	C529.142456,678.594971 526.695557,665.314453 529.333435,650.795959 
	C530.204224,646.003418 529.947693,642.484924 526.698364,638.621704 
	C520.332642,631.053467 517.956543,621.798706 518.000916,612.086243 
	C518.067810,597.439697 517.085327,582.774292 518.554810,568.142883 
	C518.669861,566.997253 518.653198,565.779419 518.392090,564.666931 
	C517.817444,562.218323 516.546021,560.261536 513.671448,560.416504 
	C510.647095,560.579590 509.266266,562.391296 509.271332,565.372192 
	C509.282410,571.871216 509.415649,578.374329 509.232544,584.868286 
	C508.899750,596.670959 510.296936,608.523743 508.298981,620.276428 
	C507.182129,626.846069 504.372620,632.378601 497.953796,635.204529 
	C494.809082,636.589050 494.428467,638.513977 495.387360,641.527039 
	C497.875092,649.344055 499.116455,657.327271 498.522888,665.600220 
	C497.864319,674.778992 493.275421,681.564087 486.264252,687.004822 
	C467.531250,701.542053 435.855743,700.623291 416.215698,685.292847 
	C408.934875,679.609680 403.369751,672.737488 399.553284,664.435913 
	C398.267395,661.638977 396.961884,660.622559 393.540039,660.985229 
	C368.739075,663.614197 342.478302,640.032654 343.750854,616.049866 
	C343.993011,611.487061 342.308594,609.163147 338.372894,607.203674 
	C320.041687,598.077026 310.063293,583.029480 307.879913,562.777100 
	C307.016479,554.768127 308.777313,547.073059 312.482117,540.078003 
	C314.758972,535.779053 314.220825,532.564209 311.929657,528.593506 
	C300.426270,508.657623 297.790588,487.579102 305.061523,465.615082 
	C311.389954,446.498108 323.562408,432.353394 341.983856,423.795441 
	C344.072906,422.824982 346.878540,422.513184 345.858246,418.682892 
	C341.240967,401.348877 349.488281,389.067657 362.189209,378.838562 
	C370.665009,372.012299 380.257599,367.494812 391.338898,367.045074 
	C394.596466,366.912903 395.967773,365.444702 396.852234,362.495758 
	C399.525452,353.582581 403.751160,345.585602 410.917999,339.316071 
	C415.187347,335.581268 420.037415,333.153442 425.504242,332.053375 
	C435.900726,329.961395 443.471558,336.478882 443.498169,346.914459 
	C443.532990,360.573090 443.949921,374.230408 444.118011,387.889313 
	C444.145325,390.111084 445.144501,391.648041 446.614532,393.101746 
	C449.930023,396.380402 453.202118,399.702942 456.738373,403.261200 
M603.759399,433.279846 
	C600.895813,437.558350 597.026062,439.312561 591.843750,438.445679 
	C589.741943,438.094086 587.511536,438.294189 585.363892,438.498535 
	C583.415222,438.683990 581.548828,439.642151 581.828125,441.874695 
	C582.093811,443.998230 584.024292,444.676849 586.011536,444.517029 
	C587.989929,444.357971 590.014832,443.508026 591.906738,443.770935 
	C598.851379,444.736023 603.461914,441.357635 607.897766,436.565796 
	C616.716003,427.039886 626.128235,418.059021 634.832764,408.434845 
	C638.787781,404.061981 642.816101,404.116272 647.715088,405.583191 
	C647.331543,408.187653 645.386475,408.971741 643.570435,409.628662 
	C639.764893,411.005310 637.508850,413.822174 636.466736,417.466736 
	C634.991699,422.625305 632.314270,426.588531 628.008972,429.984131 
	C622.116821,434.631256 624.204529,443.407898 631.300659,445.801239 
	C633.257751,446.461304 635.629211,446.239594 637.205322,448.279541 
	C636.420898,450.394348 634.540161,450.620026 632.802979,451.001495 
	C629.549805,451.715912 626.615540,453.136841 625.507935,456.394714 
	C624.336365,459.840729 622.006165,460.295380 618.921631,460.277130 
	C607.595032,460.209961 596.267273,460.240601 584.940857,460.338409 
	C582.955505,460.355530 579.766724,459.563904 579.872375,462.708008 
	C579.981567,465.956818 583.221680,464.652344 585.093323,464.638519 
	C595.747009,464.560028 606.400574,464.327667 617.051147,464.037079 
	C621.005371,463.929169 624.375305,464.521881 627.520569,467.490295 
	C630.824280,470.608185 635.166199,470.751404 639.115173,468.300873 
	C642.856567,465.979248 644.510437,462.511505 643.418152,458.050751 
	C642.874207,455.829376 642.708374,453.818970 645.787537,452.554504 
	C647.223022,457.444397 649.359070,461.770569 654.227051,463.608337 
	C659.703125,465.675629 663.548950,462.987762 666.617126,456.908203 
	C668.391724,462.102539 669.073425,465.562500 666.321777,468.695740 
	C663.692444,471.689606 660.526428,474.236206 658.075500,477.355896 
	C655.627258,480.471954 652.723328,481.309143 648.960754,481.287567 
	C633.137024,481.196838 617.312134,481.316010 601.487671,481.368042 
	C600.156555,481.372406 598.816467,481.367615 597.497620,481.517426 
	C596.443054,481.637177 595.570679,482.232483 595.523865,483.406708 
	C595.477417,484.571564 596.266541,485.286621 597.324402,485.447968 
	C598.631958,485.647369 599.974609,485.674744 601.302185,485.675781 
	C617.459961,485.688416 633.617676,485.684052 649.775452,485.680573 
	C655.557373,485.679352 671.046326,474.173737 672.704590,468.635742 
	C672.845764,468.164429 672.889282,467.649994 672.896118,467.154449 
	C673.128235,450.349304 672.120728,433.524292 673.823486,416.738739 
	C674.062378,414.383759 672.901367,412.406433 670.048279,412.564026 
	C663.725830,412.913239 663.510620,412.827759 662.976624,406.270020 
	C662.725708,403.189178 662.508911,399.880615 659.461731,398.487915 
	C656.220886,397.006805 654.867554,394.665314 653.777710,391.529999 
	C652.041931,386.536041 647.268066,384.196594 642.170593,385.349365 
	C637.827393,386.331512 634.190369,390.798889 635.462830,395.521027 
	C636.894897,400.835510 634.254456,403.567200 631.094604,406.624176 
	C622.118896,415.307587 613.196838,424.046539 603.759399,433.279846 
M583.478271,607.124756 
	C586.344116,608.704224 586.935791,611.302002 586.940674,614.325989 
	C586.958069,625.148743 587.050049,635.971680 587.177124,646.793762 
	C587.224426,650.826416 586.922607,654.517395 584.389221,658.119263 
	C581.531677,662.182068 583.825073,667.815369 588.594482,670.301270 
	C593.141724,672.671387 599.278809,670.506897 601.230591,665.844666 
	C603.157104,661.242737 600.999512,654.752441 596.357544,653.869080 
	C591.018372,652.853149 590.824524,649.723450 590.939575,645.625854 
	C591.243164,634.813354 591.346497,623.995117 591.673584,613.183594 
	C591.794373,609.188538 590.635071,606.339111 587.052734,604.027771 
	C579.508972,599.160400 572.384766,593.645813 564.879395,588.715027 
	C550.866821,579.509094 553.377930,583.769104 553.057312,566.614563 
	C553.014160,564.304810 553.791992,561.664978 551.472595,559.677551 
	C550.271423,560.201965 549.694641,561.067200 549.675476,562.060059 
	C549.547180,568.712036 549.458557,575.365845 549.465698,582.018860 
	C549.467773,583.939270 551.130127,584.718811 552.513062,585.671570 
	C562.649475,592.655029 572.761169,599.674316 583.478271,607.124756 
M412.296997,567.698181 
	C409.048523,571.273682 406.052094,575.124695 402.502991,578.371521 
	C392.962097,587.099792 387.933868,597.348145 390.161652,610.567749 
	C390.819244,614.469788 389.791687,617.094055 384.813751,617.443787 
	C379.854492,617.792175 375.852020,623.567444 376.362915,628.214417 
	C376.882172,632.937439 381.311218,636.825928 386.367371,636.997681 
	C394.107056,637.260742 398.763489,630.850586 396.128540,623.047791 
	C395.031860,619.800354 395.039917,616.551636 394.552856,613.291626 
	C392.546814,599.865479 397.598602,589.778259 406.568695,579.777405 
	C414.364288,571.085999 422.234131,567.160400 433.482880,569.393005 
	C436.049774,569.902405 438.815277,570.107178 441.385284,569.116028 
	C442.893005,568.534546 443.927917,567.382812 443.386597,565.603577 
	C442.957733,564.193909 441.895599,563.239807 440.366058,563.623047 
	C433.615143,565.314758 426.770294,564.083557 419.976929,564.345642 
	C417.151917,564.454712 414.728699,565.042358 412.296997,567.698181 
M362.970398,542.445984 
	C364.511902,541.177185 366.325439,540.127380 367.551727,538.604736 
	C377.019348,526.849487 389.101440,522.784607 404.013916,524.566406 
	C412.544922,525.585754 421.299225,524.758545 429.952698,524.713135 
	C431.723572,524.703857 434.189331,525.029846 434.110107,522.422913 
	C434.032928,519.884277 431.552948,520.359375 429.799683,520.252747 
	C428.472992,520.171997 427.137939,520.223206 425.806610,520.224915 
	C413.325378,520.241089 400.836853,520.512451 388.366394,520.154358 
	C383.254028,520.007507 379.508636,521.704773 375.876770,524.981567 
	C368.715637,531.442566 361.259277,537.575745 354.073700,544.010620 
	C351.732788,546.106934 349.509155,546.814331 346.400146,546.035645 
	C341.878632,544.903198 338.133270,546.419678 335.962097,550.709106 
	C334.062744,554.461487 334.290283,558.273865 337.215942,561.375916 
	C339.860168,564.179626 343.288696,565.564087 347.192932,564.212524 
	C351.136200,562.847473 354.114227,560.073242 353.790680,555.803589 
	C353.431000,551.057556 355.718140,548.361389 359.055542,545.872986 
	C360.251251,544.981506 361.298309,543.890686 362.970398,542.445984 
M641.500000,504.252014 
	C633.680847,504.258545 625.861755,504.272430 618.042603,504.268768 
	C613.551575,504.266663 609.060425,504.205811 604.569702,504.236145 
	C603.149231,504.245758 601.776917,504.770660 601.671326,506.380524 
	C601.560791,508.064789 602.942505,508.564270 604.346008,508.695404 
	C605.501404,508.803345 606.672180,508.760803 607.836182,508.760040 
	C625.803589,508.748413 643.794861,508.172455 661.729248,508.934967 
	C671.949219,509.369476 679.914673,507.053436 685.625061,498.357758 
	C687.389709,495.670471 689.860229,494.677643 693.217468,494.588348 
	C699.002441,494.434479 703.096802,489.476746 702.364197,484.307098 
	C701.644348,479.227722 696.399963,475.507385 691.392334,476.523834 
	C685.902588,477.638123 682.632019,482.955353 684.249695,488.642059 
	C684.921387,491.003326 684.829346,492.666534 682.865417,494.362457 
	C680.992065,495.980194 679.318848,497.893158 677.833252,499.882172 
	C675.317688,503.250183 672.196472,504.493896 667.950806,504.345215 
	C659.476501,504.048492 650.984619,504.253784 641.500000,504.252014 
M361.072388,448.433533 
	C357.325500,444.547974 352.843628,444.200470 348.260071,446.330475 
	C344.164368,448.233765 342.736084,451.886566 343.284058,456.305176 
	C343.972229,461.853882 348.316864,465.340515 354.821716,464.645538 
	C358.784607,464.222137 361.416107,465.411743 363.989441,468.176178 
	C368.638580,473.170654 373.535522,477.934296 378.323029,482.800232 
	C379.725128,484.225281 381.026123,485.714600 383.314880,485.717743 
	C398.963898,485.739227 414.612854,485.827393 430.261810,485.821228 
	C432.011597,485.820557 434.512634,485.903198 434.287384,483.321167 
	C434.068970,480.818024 431.570282,481.373444 429.837860,481.362091 
	C421.679443,481.308716 413.409515,480.478516 405.385284,481.516998 
	C389.511444,483.571320 376.890015,479.469421 367.503998,465.928253 
	C365.190399,462.590424 362.137817,460.245148 363.512238,455.549744 
	C364.187897,453.241394 362.789520,451.031464 361.072388,448.433533 
M476.660950,560.580994 
	C473.767120,564.992065 475.496216,569.897278 475.455688,574.527100 
	C475.418030,578.829895 473.926880,581.658936 470.625519,584.221497 
	C463.265686,589.934387 456.629120,596.740479 448.775665,601.615540 
	C438.593353,607.936218 435.557861,616.417908 437.238678,627.556091 
	C437.769867,631.076355 436.744232,633.722839 433.376404,635.902466 
	C429.829071,638.198425 427.196381,641.698792 429.016235,646.519104 
	C430.665100,650.886475 434.053345,653.275085 438.598114,653.216675 
	C442.858398,653.161926 446.142761,651.107178 447.827332,646.819458 
	C449.588257,642.337158 448.013611,638.978394 444.567566,636.300232 
	C442.602570,634.773132 441.158173,633.134583 441.145355,630.569092 
	C441.122040,625.908447 441.116577,621.247253 441.160736,616.586792 
	C441.180939,614.453613 442.205658,612.877258 443.888184,611.520935 
	C451.921753,605.044739 459.506897,597.929749 467.985657,592.111755 
	C476.277832,586.421692 481.017700,579.864380 478.909363,569.516479 
	C478.307465,566.562256 480.192963,563.183960 476.660950,560.580994 
M426.077942,548.231689 
	C417.471313,549.436523 408.812256,549.105591 400.172729,548.964600 
	C396.775269,548.909119 394.082428,549.761597 391.707703,552.258179 
	C385.176453,559.124695 378.382751,565.745483 371.965210,572.714294 
	C369.188141,575.729980 366.477936,577.397766 362.118835,577.176453 
	C356.128052,576.872253 352.428223,580.810486 352.551117,586.234741 
	C352.674225,591.668640 356.767853,595.236511 362.569153,594.966492 
	C367.991364,594.714050 372.337402,590.010986 371.359589,584.499512 
	C370.759155,581.115295 372.008392,579.151123 374.046295,577.058716 
	C380.079742,570.863770 386.240173,564.780396 392.021515,558.356812 
	C395.201599,554.823486 398.693024,553.402405 403.402954,553.612000 
	C410.542694,553.929626 417.706024,553.703430 424.859131,553.742737 
	C426.826477,553.753540 428.666962,553.390930 429.284576,551.304932 
	C429.839813,549.429504 428.493683,548.632324 426.077942,548.231689 
M632.814270,622.190918 
	C630.600891,622.601074 628.628052,623.573181 626.148438,622.162415 
	C618.989319,618.089233 612.035889,614.186707 611.720703,604.458801 
	C611.625977,601.534729 610.336731,598.658081 609.676392,595.741150 
	C609.083557,593.122559 607.496216,591.531372 605.223694,590.099121 
	C592.930176,582.350952 578.692566,577.622498 568.319275,566.361755 
	C565.694214,571.334045 568.780701,573.888489 572.288330,575.954163 
	C580.603088,580.850708 588.826477,585.977844 597.488647,590.183960 
	C603.897156,593.295715 607.077454,597.655762 607.630737,604.657654 
	C608.385071,614.203247 612.328674,621.717834 622.215027,624.850830 
	C624.882568,625.696228 625.448181,627.800964 625.201965,630.426575 
	C624.888367,633.770447 625.880005,636.705261 628.786987,638.702942 
	C632.432861,641.208252 636.214539,641.579346 639.966919,639.014709 
	C643.739929,636.436035 644.804443,632.647705 643.661316,628.455322 
	C642.308105,623.493042 638.437195,621.925354 632.814270,622.190918 
M679.214722,531.388916 
	C677.370239,531.800903 675.458313,532.617004 674.550171,534.085571 
	C671.999573,538.210266 668.271912,538.185974 664.153931,538.004517 
	C656.184631,537.653442 648.203613,537.496948 640.226257,537.443787 
	C637.977905,537.428772 636.270935,536.732971 635.154114,534.926086 
	C627.653381,522.790710 616.719849,518.784790 603.005432,521.121155 
	C601.380859,521.397888 599.683655,521.222107 598.025757,521.337891 
	C596.790955,521.424255 595.729309,521.830078 595.679138,523.695984 
	C598.723938,526.259583 602.537964,525.141785 605.946106,524.996155 
	C615.140320,524.603271 623.409668,525.829773 628.917969,534.387268 
	C629.968079,536.018616 631.870056,537.075500 633.169617,538.578430 
	C635.436890,541.200500 638.222168,541.975159 641.604980,541.911804 
	C650.085999,541.752930 658.571899,541.874084 667.055176,541.805115 
	C669.573242,541.784607 671.301941,542.377258 672.656372,544.898865 
	C675.403809,550.013550 680.007874,551.658936 684.735107,549.810425 
	C689.030212,548.130798 692.177124,543.127319 691.382141,539.241394 
	C690.263916,533.774719 686.379333,531.051453 679.214722,531.388916 
M552.249573,344.099213 
	C550.871216,343.540161 549.538574,342.762573 548.106018,342.462402 
	C543.527771,341.503265 538.904419,343.934143 537.003174,348.117310 
	C535.065674,352.380615 535.751221,357.460205 539.685181,359.687042 
	C543.900452,362.073120 544.444946,365.340179 543.854980,369.286377 
	C543.007874,374.953033 543.708130,380.604553 544.107910,386.197693 
	C544.708679,394.603210 543.972046,401.524384 534.117065,404.159058 
	C530.196045,405.207306 530.169617,409.056122 530.897766,412.533844 
	C531.104492,413.520813 531.673706,414.443634 532.837036,414.545044 
	C534.048401,414.650635 534.792847,413.844269 534.826294,412.776276 
	C534.976135,407.988495 538.620850,406.418335 542.139343,404.937805 
	C546.406860,403.142059 547.965942,400.227051 547.826050,395.590454 
	C547.540527,386.124725 547.804932,376.643524 547.727783,367.169617 
	C547.704224,364.278046 548.490051,362.368591 551.200867,360.701630 
	C557.981079,356.532471 558.407166,350.791443 552.249573,344.099213 
M332.007690,500.587830 
	C329.606506,506.429443 330.716919,510.589813 335.439880,513.447083 
	C340.071411,516.249023 345.378418,515.029480 349.069244,510.236145 
	C350.264191,508.684235 350.982330,506.762787 353.505402,506.784149 
	C370.805634,506.930817 388.134491,506.119812 405.393036,507.497467 
	C411.636505,507.995880 417.629303,506.409088 423.776276,506.743805 
	C425.049866,506.813141 425.966370,506.023804 425.853882,503.813965 
	C420.093658,502.738373 414.115784,501.743774 408.108032,502.263031 
	C390.330566,503.799469 372.522736,502.757965 354.737732,503.263367 
	C352.370514,503.330627 350.883698,502.513580 349.437042,500.455750 
	C344.699097,493.716064 338.240784,493.639313 332.007690,500.587830 
M668.259827,583.726807 
	C667.254395,590.843750 670.974915,598.244080 666.617554,605.190430 
	C667.569153,605.774597 668.235718,606.267883 668.970764,606.617188 
	C670.426819,607.309082 671.433044,609.753540 673.603516,607.782532 
	C675.326355,606.218018 674.247253,604.744751 673.529419,603.292786 
	C672.675964,601.566223 672.771545,599.735718 672.762268,597.913452 
	C672.731934,591.922302 672.633118,585.928955 672.756226,579.940491 
	C672.812988,577.179688 671.874268,575.236389 669.664673,573.576538 
	C664.876770,569.979858 660.024597,566.425232 655.569885,562.438599 
	C649.005005,556.563599 641.606018,553.979858 632.770569,552.907166 
	C623.106689,551.733948 612.184509,553.111816 604.613159,544.320984 
	C603.576660,543.117554 601.915222,543.108948 600.581543,544.377747 
	C599.067688,545.817871 599.385132,547.309875 600.406677,548.857849 
	C602.315979,551.751160 605.346680,552.759583 608.458191,553.371155 
	C617.756775,555.198792 627.032349,557.330872 636.423950,558.428040 
	C642.194702,559.102234 646.932007,561.054871 651.274353,564.644531 
	C655.634094,568.248535 660.027649,571.820129 664.545288,575.221375 
	C667.157837,577.188293 668.724121,579.445068 668.259827,583.726807 
M605.123474,572.369873 
	C610.195068,577.182495 615.243103,582.020203 620.349731,586.795410 
	C622.420837,588.732117 623.406067,590.588989 622.703247,593.772583 
	C621.576904,598.874573 626.310974,604.284912 631.396362,604.554688 
	C636.418457,604.821045 640.494873,600.879822 640.762573,595.498962 
	C641.026794,590.188904 636.694031,584.727112 631.761902,585.848267 
	C625.929749,587.174011 623.190613,584.026611 619.944580,580.721252 
	C617.728882,578.465088 615.417480,576.301575 613.120911,574.126160 
	C606.210815,567.580688 600.035095,560.059265 589.838196,558.152527 
	C587.372498,557.691345 584.968079,556.721313 583.869812,559.493774 
	C582.646118,562.582703 585.487732,563.341125 587.646118,564.188416 
	C588.254272,564.427063 588.966675,564.633118 589.593750,564.554626 
	C596.209656,563.726929 600.546021,567.508118 605.123474,572.369873 
M482.058655,392.234009 
	C481.929749,384.082123 481.879578,375.927856 481.634277,367.779480 
	C481.531860,364.378296 482.199524,361.871948 485.469208,359.896454 
	C489.432800,357.501678 490.614258,353.498199 489.181824,348.999878 
	C487.808441,344.686951 483.586426,341.995483 478.687988,342.125366 
	C474.157837,342.245544 471.028290,344.481537 469.746277,348.754425 
	C468.357056,353.384583 469.645355,357.773285 473.803802,360.060181 
	C477.611237,362.153992 478.190247,364.900360 478.140198,368.610138 
	C478.005554,378.592590 477.967651,388.578156 478.057007,398.561005 
	C478.102783,403.672028 481.674805,405.985321 486.072479,403.966278 
	C486.123352,401.688171 483.890900,400.769623 483.057190,399.001892 
	C482.166595,397.113464 482.141418,395.143707 482.058655,392.234009 
M404.689453,453.661316 
	C397.951416,451.207245 392.765350,453.519135 391.522308,459.643188 
	C390.605194,464.161682 391.816711,467.918457 396.002167,470.329987 
	C400.144714,472.716736 405.067413,472.335663 408.290527,468.505432 
	C411.015106,465.267700 414.028076,464.594177 417.929504,464.679413 
	C427.424103,464.886749 436.926270,464.763214 446.425293,464.739685 
	C448.092743,464.735565 450.209808,464.775055 450.278717,462.568390 
	C450.349731,460.293823 448.228577,460.312744 446.561218,460.300262 
	C439.395050,460.246674 432.221924,460.038666 425.064026,460.273895 
	C417.678772,460.516663 410.396240,460.926971 404.689453,453.661316 
M451.439941,572.931885 
	C445.437286,578.428833 439.242310,583.734253 433.505432,589.495789 
	C430.156311,592.859314 427.023865,594.858398 421.877106,594.393372 
	C415.779724,593.842468 411.883331,598.497925 412.228516,604.436462 
	C412.570587,610.321594 416.407684,613.388855 422.799103,612.886169 
	C428.507721,612.437195 432.473724,608.048950 431.412201,602.387390 
	C430.780304,599.017151 431.883453,597.089905 434.105591,595.054688 
	C441.578430,588.210144 449.005035,581.314026 456.371246,574.355042 
	C457.926300,572.885925 460.190002,571.547119 459.170837,568.352051 
	C455.797821,568.320129 454.153229,570.894104 451.439941,572.931885 
M560.051697,658.484619 
	C560.736694,664.168091 558.509644,670.407471 563.006714,675.729553 
	C564.506714,674.003479 564.474609,672.266357 564.490601,670.704590 
	C564.632141,656.881531 564.648621,643.057251 564.748169,629.233704 
	C564.763977,627.044800 563.617554,625.488831 562.376831,623.895386 
	C556.647888,616.537903 550.603455,609.393311 545.354858,601.706299 
	C541.963684,596.739563 536.327393,593.099976 535.687439,586.347168 
	C535.568298,585.090271 534.476868,584.271301 533.130859,584.524719 
	C531.361694,584.857727 530.693176,586.255676 530.811462,587.873535 
	C530.987488,590.282837 532.281372,592.264709 533.704712,594.135376 
	C540.054688,602.480469 546.292603,610.914978 552.816528,619.122009 
	C557.725098,625.296997 561.223450,631.595032 560.138428,640.019287 
	C559.400208,645.751465 560.031799,651.660156 560.051697,658.484619 
M424.358643,379.594299 
	C424.361359,385.091553 424.387512,390.588959 424.353790,396.085968 
	C424.342346,397.953430 424.439545,399.692749 425.832214,401.188171 
	C436.043121,412.152130 445.373535,423.929779 456.321442,434.209930 
	C457.565857,435.378479 458.828583,437.029144 461.034393,435.852539 
	C461.869354,433.324646 459.787415,432.159088 458.580078,430.812378 
	C449.910339,421.141876 441.131348,411.569336 432.387238,401.965515 
	C430.808990,400.232086 428.834808,398.450073 429.022339,396.021912 
	C429.739105,386.741364 426.318176,377.167175 431.306854,368.137238 
	C432.694611,365.625305 432.270355,362.527313 429.331970,360.645264 
	C427.118835,359.227783 424.875122,359.184998 422.906311,361.012817 
	C420.462860,363.281219 420.183716,366.373474 422.047913,368.709351 
	C424.535767,371.826691 424.307831,375.166809 424.358643,379.594299 
M609.071350,394.774658 
	C614.423340,391.275543 615.921875,387.065491 613.532593,382.241516 
	C611.236572,377.605927 606.071838,375.426849 601.394714,377.120361 
	C595.950073,379.091766 593.661072,383.763885 595.524414,389.879639 
	C596.136780,391.889465 595.483765,392.868988 594.217651,394.162903 
	C585.730225,402.836304 577.308411,411.574036 568.898621,420.322937 
	C567.457336,421.822357 565.133118,423.509338 567.572571,425.666840 
	C569.753357,427.595520 571.169373,425.216675 572.450317,423.848633 
	C579.041260,416.809784 585.585632,409.726929 592.102173,402.619019 
	C595.853821,398.526825 598.992126,393.357483 605.982483,395.628693 
	C606.647705,395.844849 607.567383,395.277740 609.071350,394.774658 
M400.019379,414.315460 
	C396.570068,411.083954 392.791595,412.600647 389.207245,413.177338 
	C393.056244,416.583527 397.990631,417.940826 401.413696,422.242828 
	C406.879608,429.112366 413.187164,435.332825 419.354584,441.615967 
	C423.209045,445.542694 431.272888,444.708618 434.669678,440.177002 
	C432.646179,439.010559 430.437836,439.314636 428.354980,439.273529 
	C424.980927,439.206940 422.302643,437.945892 420.008759,435.486450 
	C413.554352,428.566254 407.019257,421.721344 400.019379,414.315460 
M399.780579,385.265015 
	C394.831635,385.986023 392.662903,389.269897 392.374420,393.851654 
	C392.112732,398.007935 394.470764,400.947510 398.179657,402.271332 
	C401.974915,403.626007 405.932587,403.241821 408.654114,399.849304 
	C411.355774,396.481506 411.097809,392.707886 408.721863,389.189758 
	C406.804352,386.350555 403.954132,385.177368 399.780579,385.265015 
M446.792206,663.810425 
	C445.405762,664.318115 443.887604,664.612488 442.657013,665.372498 
	C438.580811,667.889893 437.501007,672.992371 440.037506,677.013306 
	C442.764343,681.336060 448.259003,682.533997 452.635803,679.759827 
	C456.394836,677.377380 457.649536,672.331421 455.307709,668.414673 
	C453.573517,665.514160 450.771851,664.192078 446.792206,663.810425 
M495.200592,439.655365 
	C496.603638,439.483673 497.743561,438.799438 498.445587,437.611298 
	C500.192352,434.654846 500.494720,431.630432 498.077362,428.904755 
	C496.203278,426.791687 493.583008,426.345123 491.311920,427.802246 
	C488.259827,429.760498 487.997894,432.875183 489.112823,436.171143 
	C489.986298,438.753357 491.878662,439.725525 495.200592,439.655365 
M537.548401,438.008667 
	C538.487000,436.942474 538.636597,435.652344 538.682678,434.298126 
	C538.789062,431.174255 537.743408,428.684387 534.639893,427.631561 
	C532.416565,426.877289 530.244934,427.403137 528.913574,429.444305 
	C527.261169,431.977509 526.906616,434.838989 528.703552,437.399323 
	C530.938416,440.583618 533.919556,440.404602 537.548401,438.008667 
M439.503052,518.939026 
	C438.158630,522.199524 438.634949,525.021851 442.172546,526.258850 
	C445.054840,527.266724 448.229095,527.373108 450.271454,524.422668 
	C452.026306,521.887573 451.487793,519.244751 449.338104,517.207703 
	C446.621124,514.633179 443.663635,514.879089 440.834503,517.200500 
	C440.456390,517.510742 440.181030,517.946106 439.503052,518.939026 
M446.804443,487.053131 
	C451.011749,485.787079 451.604553,482.756012 450.264343,479.206726 
	C449.157837,476.276306 444.757355,475.299530 441.613037,477.015869 
	C439.323639,478.265503 438.112579,480.352783 438.765259,482.792023 
	C439.723724,486.374176 442.579254,487.524719 446.804443,487.053131 
M448.235413,536.273987 
	C444.530975,534.637634 441.361755,535.166016 439.285034,538.853882 
	C437.816925,541.460938 438.872894,543.861206 441.023621,545.425598 
	C443.683533,547.360352 446.813538,547.524902 449.193939,545.032410 
	C451.737976,542.368469 451.531769,539.362671 448.235413,536.273987 
M450.753479,500.814941 
	C449.834076,496.152100 446.451172,495.788452 442.767944,496.528748 
	C440.144012,497.056091 438.095764,498.723938 438.472076,501.713776 
	C438.907806,505.175354 441.268799,506.733948 444.691284,506.876953 
	C448.423279,507.032928 450.822052,505.732147 450.753479,500.814941 
M529.200562,561.841248 
	C527.584106,565.018005 527.232483,568.174316 529.933167,570.912964 
	C531.553406,572.556091 533.556274,573.042236 535.783875,571.763733 
	C538.731934,570.071594 539.037598,567.349121 538.625854,564.468933 
	C538.053162,560.463562 534.985962,559.419495 529.200562,561.841248 
M578.455322,526.181213 
	C579.590149,526.378174 580.728271,526.759033 581.859131,526.738403 
	C585.617249,526.670166 587.846802,524.819885 587.792114,520.906006 
	C587.737488,517.004456 584.876221,515.933899 581.728271,515.592896 
	C579.601929,515.362488 577.675537,516.378174 576.776733,518.333191 
	C575.596313,520.900574 575.653625,523.515930 578.455322,526.181213 
M489.473785,568.683472 
	C490.873322,571.973999 493.171997,573.276917 496.551819,571.628601 
	C500.082123,569.906921 500.266815,566.754333 499.322235,563.567749 
	C498.399353,560.454590 495.695282,559.845337 492.906616,560.393921 
	C488.514252,561.258057 489.362732,564.838440 489.473785,568.683472 
M580.799011,496.340057 
	C577.350159,496.726776 575.975098,498.735992 576.212830,502.092163 
	C576.428101,505.131836 578.278687,506.444580 581.050964,506.657959 
	C584.217529,506.901642 587.289917,506.456604 587.778992,502.590027 
	C588.339722,498.156555 585.791626,496.299042 580.799011,496.340057 
M587.623901,542.898071 
	C588.055298,540.299927 588.031433,537.745361 585.220154,536.511963 
	C582.703308,535.407837 580.018494,535.179321 577.684204,537.083618 
	C575.905090,538.534973 575.916382,540.618408 576.377869,542.592407 
	C577.482361,547.316162 582.983337,547.800293 587.623901,542.898071 
M576.773071,484.660980 
	C579.513611,487.917847 582.900452,487.693542 586.076416,485.817200 
	C588.344055,484.477509 588.428589,481.871765 587.364258,479.615906 
	C586.076904,476.887299 583.506653,475.950775 580.728943,476.456207 
	C576.552429,477.216156 575.773865,480.242096 576.773071,484.660980 
M421.787018,417.707306 
	C425.427643,420.634735 427.713318,425.426453 433.137451,425.981201 
	C428.432556,417.589111 421.575897,411.536011 413.564117,406.663239 
	C414.651489,411.438416 417.882996,414.401031 421.787018,417.707306 
z"/>
<path fill="#000000" opacity="1.000000" stroke="none" 
	d="
M805.955627,618.895874 
	C817.330872,613.826721 827.981384,607.956055 839.728149,604.594910 
	C841.273926,607.797852 839.644531,610.015137 838.820740,612.226257 
	C830.043579,635.785217 817.696472,657.445740 803.550598,678.138123 
	C803.174622,678.688110 802.755127,679.208252 802.374451,679.755188 
	C797.178223,687.222839 797.179016,687.223389 802.870911,693.963806 
	C811.005005,703.596313 810.590454,716.784302 801.838684,726.798462 
	C794.420227,735.286926 780.225525,736.668640 769.738892,729.923157 
	C763.362732,725.821594 763.293884,725.744568 757.529053,730.886108 
	C720.098450,764.269836 677.535400,788.917358 630.059814,804.857666 
	C606.994507,812.601990 583.177429,817.406616 558.981812,820.424561 
	C535.075623,823.406555 511.123688,823.894409 487.182373,822.084900 
	C453.496826,819.538940 420.783081,812.266479 388.987610,800.663269 
	C351.401642,786.947021 316.822784,767.824402 285.545013,743.023987 
	C249.362656,714.334656 219.698273,680.024414 198.567490,638.642334 
	C193.789001,629.284302 189.148026,619.904907 185.441650,610.075745 
	C184.865402,608.547546 184.444534,606.960693 183.977570,605.482544 
	C186.106430,603.670410 187.724319,605.182251 189.263550,605.808655 
	C209.810501,614.170227 229.766144,623.719177 248.831070,635.124084 
	C252.941101,637.582703 255.452454,641.024231 257.703583,644.959839 
	C272.697235,671.173401 291.101318,694.710022 313.099487,715.420837 
	C342.876770,743.455688 377.248505,763.860352 415.581573,777.972229 
	C453.564026,791.954834 492.802399,797.145447 532.938965,794.460754 
	C573.241394,791.764954 611.533508,781.120361 647.574524,762.461060 
	C686.801636,742.152344 719.327820,714.287354 744.764526,678.187195 
	C751.779419,668.231506 757.846375,657.678711 763.221191,646.755798 
	C765.288635,642.554199 768.070923,639.498352 772.301514,637.282532 
	C783.513672,631.410156 794.525940,625.156250 805.955627,618.895874 
M779.993347,696.540894 
	C776.306335,697.543640 773.440491,699.556641 771.760925,703.100037 
	C770.869812,704.980042 771.111328,706.711792 772.572327,708.079895 
	C773.982300,709.400146 775.677917,709.059631 777.151428,708.095581 
	C779.359680,706.650696 781.537537,705.145874 783.621765,703.529236 
	C784.988831,702.468872 787.212646,701.350281 786.029297,699.289795 
	C785.008301,697.512085 783.856873,694.717957 779.993347,696.540894 
z"/>
<path fill="#000000" opacity="1.000000" stroke="none" 
	d="
M689.644775,677.662109 
	C705.540649,657.964294 716.190613,635.849060 724.833679,612.619995 
	C731.589539,594.462891 736.055481,575.781372 739.663879,556.747314 
	C743.555847,536.218323 755.996033,520.683411 772.030396,507.825256 
	C775.998291,504.643402 779.434326,506.135376 782.888794,508.635254 
	C795.527466,517.781128 809.599060,520.639038 824.990051,518.896729 
	C836.975342,517.539917 846.805054,512.004028 855.602966,504.352509 
	C859.036865,501.366058 861.862305,501.465790 865.402466,503.756927 
	C889.817932,519.558105 902.127380,541.570374 900.420410,571.004944 
	C900.202087,574.768860 898.140808,575.688293 895.161438,576.382690 
	C872.757446,581.603943 850.878235,588.593384 829.633484,597.332886 
	C794.069092,611.963074 760.792236,630.752686 729.897400,653.729065 
	C715.471008,664.457825 701.318787,675.574646 686.183777,685.325256 
	C685.368958,685.850220 684.464355,686.235840 682.838013,687.085083 
	C684.202881,682.742004 687.738159,680.987305 689.644775,677.662109 
z"/>
<path fill="#000000" opacity="1.000000" stroke="none" 
	d="
M462.422607,745.500916 
	C499.029358,751.631531 535.066467,750.812134 571.069031,743.847778 
	C620.299255,734.324524 664.764282,714.079651 705.357849,684.947693 
	C718.611023,675.436646 731.821716,665.866394 745.049500,656.320007 
	C745.973511,655.653259 746.772522,654.735779 748.823792,654.837646 
	C746.950928,660.097534 743.854187,664.311157 740.912964,668.528381 
	C726.263306,689.534058 709.451721,708.565552 689.448120,724.693848 
	C664.696777,744.650269 637.255127,759.758179 607.285095,770.214233 
	C582.497131,778.862366 557.020813,783.840515 530.715637,785.547974 
	C478.664856,788.926636 429.660828,778.237671 383.498444,754.668579 
	C339.006927,731.952515 302.668884,699.819519 275.744965,657.453857 
	C274.636780,655.710022 273.119019,654.032593 273.393494,650.970215 
	C279.041718,653.493469 283.161835,657.638428 287.665436,661.040161 
	C319.888824,685.380127 352.814056,708.535522 390.314636,724.300659 
	C413.422607,734.015137 437.308350,741.075012 462.422607,745.500916 
z"/>
<path fill="#000000" opacity="1.000000" stroke="none" 
	d="
M222.708771,609.305725 
	C193.928436,595.445190 164.322250,584.927124 133.708054,577.321960 
	C128.522949,576.033875 126.723076,573.700195 126.693802,568.514893 
	C126.530128,539.517639 139.232574,518.151184 164.244766,503.796844 
	C167.336029,502.022827 169.590393,502.389984 172.300705,504.625824 
	C192.090012,520.950562 213.826645,523.507202 237.163361,513.271790 
	C241.162857,511.517639 242.922241,512.426697 243.540833,516.778992 
	C244.323166,522.283447 246.530167,527.301025 249.643616,531.951233 
	C250.828339,533.720764 251.872375,535.737061 252.370972,537.789062 
	C256.164215,553.400208 266.668945,563.742920 279.587677,571.889099 
	C287.613281,576.949829 293.104126,582.431519 295.800262,592.557251 
	C303.762726,622.461060 315.687775,650.852661 335.408264,675.283325 
	C338.713440,679.377930 342.549194,683.044189 346.715424,687.527832 
	C343.292877,687.606445 341.525848,685.788879 339.534943,684.611938 
	C318.701752,672.296387 300.446289,656.331604 280.411591,642.856018 
	C261.983398,630.460876 242.867126,619.393005 222.708771,609.305725 
z"/>
<path fill="#000000" opacity="1.000000" stroke="none" 
	d="
M631.664673,303.441772 
	C633.686768,309.578400 636.196167,315.195221 636.618042,321.934113 
	C555.088379,280.079956 473.917389,279.553619 391.748077,322.047699 
	C392.965576,313.657532 395.020996,306.703308 397.578735,299.984711 
	C410.761780,265.355652 434.468903,242.024384 470.810211,232.394409 
	C473.521149,231.676071 475.583099,231.832870 477.504028,234.057465 
	C494.819031,254.109711 527.265076,255.198044 546.926758,238.021698 
	C553.385010,232.379791 558.981934,232.156555 566.226562,235.088882 
	C598.185913,248.024704 620.012695,270.563354 631.664673,303.441772 
z"/>
<path fill="#000000" opacity="1.000000" stroke="none" 
	d="
M774.406433,409.398376 
	C791.682556,392.736969 811.706787,386.871613 834.279663,394.336243 
	C856.277344,401.610718 869.755798,417.056000 873.172058,440.471313 
	C877.324951,468.936310 858.844177,497.116730 831.088501,504.100586 
	C798.319763,512.345764 765.474854,490.595367 759.796631,458.425659 
	C756.530334,439.920868 761.162048,423.489899 774.406433,409.398376 
z"/>
<path fill="#000000" opacity="1.000000" stroke="none" 
	d="
M156.390503,466.359253 
	C146.457794,435.362732 161.712830,405.579834 192.035233,394.313995 
	C212.044785,386.879730 239.362671,392.956299 243.311096,404.570007 
	C235.814072,406.292877 233.977478,410.515717 237.589127,417.687775 
	C239.197601,420.881927 241.800018,423.230530 244.247162,425.735504 
	C248.130661,429.710724 248.030273,433.043854 243.836136,436.796448 
	C237.682068,442.302460 234.413483,449.145050 233.927826,457.346832 
	C233.666122,461.766846 235.904358,463.213501 240.116501,462.839539 
	C253.510330,461.650452 263.470154,452.535492 262.037018,438.453583 
	C261.729034,435.427490 261.992065,432.343292 262.812653,429.227814 
	C267.153107,435.619171 268.175140,442.892578 267.814728,449.994843 
	C267.030640,465.444855 261.668976,478.965851 250.038269,489.989349 
	C222.132431,516.438416 175.049667,507.691742 158.974365,472.746826 
	C158.070770,470.782562 157.342545,468.737640 156.390503,466.359253 
z"/>
<path fill="#000000" opacity="1.000000" stroke="none" 
	d="
M253.738586,302.368896 
	C256.519318,290.131378 265.173615,281.601318 276.176849,279.833435 
	C288.076477,277.921509 298.348969,282.849609 304.807617,293.568695 
	C308.638550,299.926697 308.654602,299.950287 315.001953,295.627655 
	C344.037628,275.853882 375.660736,261.650452 409.332153,251.893723 
	C411.426636,251.286835 413.644714,249.918213 416.518402,251.608887 
	C413.327362,255.531006 410.344238,259.443909 407.101410,263.128174 
	C401.658051,269.312653 397.324158,276.200623 393.813416,283.603577 
	C392.591370,286.180420 390.895203,287.874390 388.281097,288.987732 
	C351.719421,304.559021 319.867218,326.833923 293.388184,356.514282 
	C282.302856,368.939880 271.537140,381.702057 263.600433,396.501648 
	C261.702057,400.041595 259.949829,401.235046 256.447235,398.082062 
	C250.973587,393.154785 244.728165,389.229492 237.922409,386.404633 
	C234.148209,384.838013 233.611313,382.982025 235.717758,379.610474 
	C244.729492,365.186493 253.921432,350.920380 265.657288,338.465332 
	C270.728180,333.083679 270.528992,332.914062 264.784393,328.693695 
	C256.026764,322.259735 253.096222,313.284882 253.738586,302.368896 
M284.873413,322.741364 
	C285.823364,322.451538 286.811096,322.249207 287.717285,321.858032 
	C294.750763,318.822083 298.392120,312.696106 297.695465,305.148315 
	C297.083649,298.519440 291.039276,291.730194 284.597076,290.435822 
	C276.861694,288.881653 270.088348,291.973389 266.413971,298.645660 
	C263.196045,304.489044 263.682343,310.243073 267.160583,315.654144 
	C271.080322,321.752106 277.031799,323.678131 284.873413,322.741364 
z"/>
<path fill="#000000" opacity="1.000000" stroke="none" 
	d="
M560.710754,194.166565 
	C560.055237,219.983978 536.541077,240.384659 512.486877,239.423721 
	C490.551910,238.547470 470.710388,220.474426 467.076904,197.353455 
	C463.763123,176.266937 477.150421,154.942169 498.167725,147.828506 
	C529.868286,137.098892 561.036987,159.981674 560.710754,194.166565 
z"/>
<path fill="#000000" opacity="1.000000" stroke="none" 
	d="
M745.492920,409.469330 
	C730.761047,379.738373 711.883301,353.539368 687.630371,331.329285 
	C675.189209,319.935974 661.931152,309.602478 647.364807,301.059753 
	C643.617065,298.861816 641.120789,296.235229 639.320129,292.122894 
	C635.117004,282.523651 630.334412,273.159637 623.913086,264.758881 
	C623.154358,263.766266 621.897949,262.909607 622.218689,261.276764 
	C624.100220,259.963959 625.671997,261.290863 627.295959,261.903320 
	C658.456665,273.655609 685.272156,292.115540 709.695374,314.517639 
	C733.663513,336.502289 752.991028,361.841064 767.613342,390.871857 
	C769.973450,395.557495 770.595703,399.043488 766.276001,403.086945 
	C760.556519,408.440704 757.008484,415.578674 752.442627,422.962219 
	C749.288330,418.522430 747.641296,414.068237 745.492920,409.469330 
z"/>
<path fill="#000000" opacity="1.000000" stroke="none" 
	d="
M549.882019,547.014343 
	C524.423279,547.001343 499.448059,547.014160 474.472992,546.952759 
	C465.709320,546.931213 464.648376,545.806580 464.660370,537.273132 
	C464.684906,519.789734 464.735504,502.306366 464.735382,484.822998 
	C464.735352,480.032288 465.810638,475.662323 469.118652,471.795258 
	C476.988525,474.410217 481.786835,480.244446 486.002136,485.999603 
	C486.032867,488.509705 483.606506,487.751617 483.365692,489.283234 
	C483.565460,489.521454 483.732208,489.925903 483.967834,489.971161 
	C489.457367,491.024933 491.595612,495.515198 493.313110,499.871338 
	C494.878204,503.841003 495.627563,508.184082 496.316589,512.430725 
	C496.852997,515.736755 498.461639,516.957031 501.672882,516.890747 
	C509.495087,516.729492 517.321838,516.596680 525.143616,516.698608 
	C528.405640,516.741150 530.112305,515.658508 530.438232,512.315186 
	C530.630615,510.342285 531.170471,508.390594 531.685242,506.464386 
	C532.938843,501.773407 535.914551,499.695160 540.882446,499.975220 
	C550.089355,500.494324 553.838379,497.178284 555.317993,487.945435 
	C555.989014,483.758209 555.669434,479.301270 558.373535,475.203461 
	C561.892273,478.614960 561.732971,483.012451 561.804321,486.902252 
	C562.125183,504.379303 562.135010,521.864563 562.034973,539.345520 
	C561.998169,545.772522 559.850586,546.992493 549.882019,547.014343 
M485.766541,496.809998 
	C483.761841,497.172180 481.559082,496.803131 479.557678,498.517365 
	C481.548462,500.196045 483.814453,500.358887 486.013916,500.577423 
	C487.236176,500.698883 488.347260,500.218506 488.537079,498.815216 
	C488.742401,497.297363 487.743042,496.835907 485.766541,496.809998 
z"/>
<path fill="#000000" opacity="1.000000" stroke="none" 
	d="
M696.769653,292.253601 
	C671.224243,272.248535 643.632202,256.808228 612.887817,247.226883 
	C608.874634,245.976196 604.689880,244.883377 601.107178,241.138184 
	C605.860718,240.159225 609.618835,241.634247 613.315186,242.706451 
	C635.588257,249.167221 657.275208,257.147034 677.630432,268.405792 
	C697.203064,279.231689 715.803040,291.499969 732.786438,306.119568 
	C738.404907,310.955994 738.851440,310.958710 744.213074,305.737671 
	C756.469177,293.803040 775.643494,294.788849 786.731873,307.923737 
	C797.007141,320.095398 794.514404,338.645081 780.856689,348.409607 
	C776.673096,351.400665 776.481934,353.679962 779.207214,357.681549 
	C783.983521,364.694611 788.256775,372.049194 792.784851,379.232910 
	C794.841187,382.495300 795.104980,385.033478 790.634888,386.386444 
	C788.904663,386.910156 787.293518,387.881287 785.690735,388.762512 
	C778.802063,392.549927 778.789795,392.577271 774.966248,385.929810 
	C771.396301,379.723145 767.598877,373.626709 764.395752,367.234131 
	C758.546997,355.561523 747.985840,347.531982 741.105713,336.813782 
	C729.533630,318.786316 713.185852,305.804413 696.769653,292.253601 
M753.061218,321.967072 
	C753.049438,324.454163 752.861023,326.955353 753.058594,329.425690 
	C753.680603,337.204681 762.731079,343.089264 770.100891,340.608215 
	C777.112976,338.247589 780.993958,331.313232 779.651794,323.543121 
	C778.551514,317.173309 772.938049,312.295105 766.481689,312.097961 
	C758.915527,311.866882 754.747864,314.681915 753.061218,321.967072 
z"/>
<path fill="#000000" opacity="1.000000" stroke="none" 
	d="
M312.988342,363.981537 
	C298.420135,382.863129 286.038452,402.698578 275.644501,425.317047 
	C272.350189,419.629120 269.665924,415.170471 267.180847,410.603424 
	C266.367493,409.108643 267.573792,407.744629 268.306030,406.458771 
	C286.461823,374.575745 310.561401,348.052185 340.369446,326.707153 
	C352.828339,317.785583 365.599091,309.352448 379.640320,303.055634 
	C381.232330,302.341705 382.682526,300.983826 385.237610,302.106415 
	C358.043579,318.994476 333.307587,338.686005 312.988342,363.981537 
z"/>
<path fill="#000000" opacity="1.000000" stroke="none" 
	d="
M676.650391,817.041626 
	C675.015320,807.872253 679.686768,800.914062 688.174255,799.375732 
	C696.171265,797.926270 703.645752,803.573669 704.960327,812.058533 
	C706.099060,819.408813 700.343445,826.614685 692.284546,827.928162 
	C685.685913,829.003662 679.539001,824.858521 676.650391,817.041626 
z"/>
<path fill="#000000" opacity="1.000000" stroke="none" 
	d="
M666.043335,426.638550 
	C666.393555,425.411072 666.085876,424.229614 667.857422,423.686554 
	C668.328674,429.059113 668.475220,434.240112 667.615967,440.649841 
	C663.640686,435.541016 665.586121,431.202240 666.043335,426.638550 
z"/>
<path fill="#000000" opacity="1.000000" stroke="none" 
	d="
M644.062805,398.927551 
	C643.247009,398.716492 642.710754,398.622314 642.343506,398.321716 
	C640.157715,396.532440 639.883606,394.416901 641.674377,392.248718 
	C642.715393,390.988312 644.290161,390.917175 644.913818,392.478180 
	C645.753479,394.580048 648.732483,397.144592 644.062805,398.927551 
z"/>
<path fill="#000000" opacity="1.000000" stroke="none" 
	d="
M434.324341,641.694580 
	C436.625916,638.615662 439.078217,638.235352 441.660553,640.562622 
	C443.715759,642.414795 443.615295,644.603271 441.958038,646.699524 
	C440.234680,648.879456 438.033386,648.964355 435.818085,647.642578 
	C433.652222,646.350281 433.411194,644.295044 434.324341,641.694580 
z"/>
<path fill="#000000" opacity="1.000000" stroke="none" 
	d="
M637.176697,635.290039 
	C633.947205,636.917297 631.665466,636.178040 630.241699,633.377930 
	C629.067017,631.067566 630.253357,629.203674 632.030823,627.804321 
	C633.960571,626.285095 636.029724,626.307129 637.746582,628.191284 
	C639.847778,630.497192 639.936035,632.855164 637.176697,635.290039 
z"/>
<path fill="#000000" opacity="1.000000" stroke="none" 
	d="
M676.908813,541.850586 
	C677.853271,536.880676 680.307312,535.103027 683.380798,536.767029 
	C685.286987,537.799072 686.292786,539.448975 686.091431,541.656311 
	C685.922913,543.503235 684.836304,544.741882 683.054321,545.132690 
	C680.351257,545.725525 678.121094,545.083008 676.908813,541.850586 
z"/>
<path fill="#000000" opacity="1.000000" stroke="none" 
	d="
M338.021118,501.677734 
	C341.457153,499.889618 343.690643,501.086792 345.522247,503.715332 
	C346.572266,505.222229 346.204071,506.489868 345.105286,507.736786 
	C343.262848,509.827637 341.037994,510.913300 338.576263,509.109253 
	C335.925873,507.166962 335.265991,504.641815 338.021118,501.677734 
z"/>
<path fill="#000000" opacity="1.000000" stroke="none" 
	d="
M600.636108,388.355225 
	C599.806519,385.626099 600.468689,383.710510 602.660156,382.547516 
	C604.139526,381.762390 605.641968,382.206818 606.746460,383.367859 
	C608.424988,385.132416 609.817749,387.257599 607.799377,389.480927 
	C605.315491,392.217010 602.851013,391.480865 600.636108,388.355225 
z"/>
</svg>